<svg width="36" height="36" viewBox="0 0 36 36" fill="none" xmlns="http://www.w3.org/2000/svg">
  <g transform="rotate(180, 18, 18)">
    <path fill-rule="evenodd" clip-rule="evenodd" d="M23.4489 0C27.063 0 28.8696 0 30.8151 0.615C32.9391 1.3881 34.6119 3.0609 35.385 5.1849C36 7.1301 36 8.9373 36 12.5511V23.4489C36 27.063 36 28.8696 35.385 30.8151C34.6119 32.9391 32.9391 34.6119 30.8151 35.3847C28.8696 36 27.063 36 23.4489 36H12.5511C8.937 36 7.1301 36 5.1849 35.3847C3.0609 34.6119 1.3881 32.9391 0.615 30.8151C0 28.8696 0 27.063 0 23.4489V12.5511C0 8.9373 0 7.1301 0.615 5.1849C1.3881 3.0609 3.0609 1.3881 5.1849 0.615C7.1301 0 8.937 0 12.5511 0H23.4489Z" fill="#386DF4"/>
    <path fill-rule="evenodd" clip-rule="evenodd" d="M23 18L15.44 25L14 23.6667L20.12 18L14 12.3333L15.44 11L23 18Z" fill="white"/>
  </g>
</svg>
