<svg width="46" height="77" viewBox="0 0 46 77" fill="none" xmlns="http://www.w3.org/2000/svg">
<path d="M9.81191 10.5286C9.83037 4.03645 14.1621 1.16502 19.6778 3.68188V4.72712C14.6586 2.49044 10.7331 5.12781 10.7162 11.0493L10.3394 10.8382L9.76877 12.1643L9.81191 10.5286Z" fill="#6BB5FB"/>
<path d="M12.5465 9.51744C11.9892 9.19461 11.2175 9.2401 10.3656 9.7307C8.67252 10.7056 7.30522 13.0674 7.31075 15.0076C7.31349 15.9714 7.6545 16.6496 8.20463 16.9684L9.19407 17.5418C8.64399 17.223 8.30299 16.5451 8.30022 15.5813C8.2947 13.641 9.66199 11.2789 11.355 10.3041C12.207 9.81371 12.9787 9.76799 13.5359 10.0908L12.5465 9.51744Z" fill="#356AF1"/>
<path d="M14.8058 9.22132C14.0654 8.79238 13.04 8.8528 11.908 9.50467C9.65844 10.8 7.84172 13.9381 7.84906 16.5162C7.85271 17.7968 8.3058 18.6979 9.03676 19.1215L11.2656 20.4131C10.5347 19.9895 10.0816 19.0887 10.0779 17.8082C10.0706 15.2301 11.8873 12.0916 14.1369 10.7963C15.2689 10.1448 16.2943 10.084 17.0346 10.513L14.8058 9.22132Z" fill="#2E4277"/>
<path d="M14.1364 10.7965C16.386 9.50117 18.2146 10.5405 18.2219 13.1185C18.2292 15.6963 16.4125 18.8345 14.1629 20.1298C11.9133 21.4251 10.0847 20.3858 10.0774 17.808C10.0701 15.23 11.8868 12.0917 14.1364 10.7965Z" fill="#2E4277"/>
<path d="M14.2377 12.2447C15.7891 11.3514 17.0503 12.0682 17.0553 13.8462C17.0604 15.624 15.8074 17.7884 14.256 18.6817C12.7045 19.5751 11.4433 18.8583 11.4383 17.0805C11.4332 15.3024 12.6862 13.1381 14.2377 12.2447Z" fill="#1B2A4F"/>
<path d="M13.8576 18.216C15.4091 17.3226 16.6621 15.1583 16.657 13.3804C16.6556 12.88 16.5546 12.4636 16.3757 12.1436C16.797 12.4643 17.0531 13.0478 17.0553 13.8461C17.0604 15.624 15.8074 17.7883 14.256 18.6817C13.1411 19.3236 12.1762 19.1341 11.7195 18.3171C12.2365 18.7107 13.0027 18.7082 13.8576 18.216Z" fill="#384E85"/>
<path d="M17.0268 2.65845C15.2159 3.70735 14.092 5.93629 14.0836 9.09571L14.0411 10.7334L10.6743 12.6841L10.7167 11.0507C10.7252 7.88705 11.849 5.6581 13.6599 4.6092L17.0268 2.65845Z" fill="#9AADFD"/>
<path d="M11.2611 20.8652C11.4383 24.8922 12.0027 28.3824 12.0027 28.3824C12.2784 32.1716 11.2586 34.984 12.3296 36.016C12.3905 39.1034 13.3541 43.1739 13.3541 43.1739L23.7722 43.7698L30.2 31.9998C29.2154 28.7487 30.1227 28.6938 30.3634 27.5202C30.4116 27.2855 30.4457 27.1591 30.4457 27.1591C29.698 30.6957 32.1842 15.4122 29.1375 10.44C26.5163 6.16227 11.4173 6.43504 10.6409 11.5669C9.90834 15.57 9.96558 17.4307 11.2611 20.8652Z" fill="#D9DDF6"/>
<path d="M10.7164 11.0493C10.7237 8.51634 11.446 6.58432 12.6632 5.37763C14.2917 3.76328 15.4898 2.24801 21.5388 1.66146C42.7204 -0.392457 33.878 25.6126 33.878 25.6126L29.1358 25.9284C29.5796 14.0418 25.6027 12.9904 23.6488 13.1789C22.1974 13.319 20.737 13.4118 19.2943 13.2003C16.1752 12.7429 14.6043 11.6207 13.0689 10.0628C12.7705 9.76004 12.2637 9.84047 12.0542 10.2099C10.1805 13.516 11.2611 20.8652 11.2611 20.8652C8.77792 16.607 10.7164 11.0493 10.7164 11.0493Z" fill="#384E85"/>
<path d="M32.5641 22.2976C31.8237 21.8686 30.7984 18.0872 29.6664 18.739C27.4168 20.0343 25.6001 23.1725 25.6074 25.7505C25.611 27.0311 26.0642 27.9322 26.7951 28.3558L29.0239 29.6475C28.293 29.2239 27.8399 28.3231 27.8363 27.0425C27.8289 24.4645 29.6456 21.326 31.8952 20.0307C33.0272 19.3791 34.0526 19.3184 34.7929 19.7473L32.5641 22.2976Z" fill="#384E85"/>
<path d="M31.8954 20.0307C34.1449 18.7354 35.9735 19.7747 35.9808 22.3528C35.9882 24.9305 34.1715 28.0688 31.9219 29.3641C29.6723 30.6594 27.8437 29.6201 27.8364 27.0423C27.8291 24.4643 29.6458 21.326 31.8954 20.0307Z" fill="#1B2A4F"/>
<path d="M34.4509 21.1536C33.8937 20.8307 33.122 20.8762 32.27 21.3668C30.577 22.3417 29.2097 24.7035 29.2152 26.6438C29.218 27.6075 29.559 28.2857 30.1091 28.6045L31.3749 29.3381C30.8249 29.0193 30.4839 28.3413 30.4811 27.3776C30.4756 25.4373 31.8429 23.0752 33.5359 22.1004C34.3879 21.61 35.1596 21.5643 35.7168 21.8871L34.4509 21.1536Z" fill="#356AF1"/>
<path d="M33.5362 22.1005C35.2293 21.1256 36.6055 21.9078 36.611 23.8481C36.6165 25.7881 35.2492 28.15 33.5562 29.1248C31.8631 30.0997 30.4869 29.3175 30.4814 27.3774C30.4759 25.4372 31.8432 23.0753 33.5362 22.1005Z" fill="#B7C5FD"/>
<path d="M35.1274 21.2133L35.085 24.9136L31.7181 26.8644L31.7606 23.1683C31.7818 16.232 26.875 7.75609 20.8232 4.27096C17.7782 2.51997 15.0132 2.35925 13.0157 3.51389L16.3868 1.56313C18.38 0.404268 21.1451 0.564988 24.1901 2.32023C30.2419 5.80532 35.1486 14.2812 35.1274 21.2133Z" fill="#B7C5FD"/>
<path d="M20.822 4.27133C26.8737 7.75582 31.7802 16.2314 31.7605 23.1664L31.755 23.3712H30.8397L30.8588 22.6473C30.8768 16.2831 26.3725 8.50232 20.8191 5.30463C16.4417 2.78412 12.7098 3.86403 11.3124 7.54629H10.1943C11.4491 2.87146 15.7381 1.34407 20.822 4.27133Z" fill="#356AF1"/>
<path d="M12.0025 28.3826C12.0025 28.3826 11.555 41.6242 16.7818 42.862C23.1284 44.365 26.7367 35.5958 32.1 34.5375C32.1 34.5375 34.8683 36.1633 37.915 38.4187C42.726 41.98 45.5867 47.5882 45.5867 53.5636L45.8882 69.8008C45.8882 71.3726 44.991 72.7955 43.57 73.4752C39.2732 75.5305 30.0693 79.8448 12.0368 69.8008C12.0368 69.8008 12.019 69.7899 11.9849 69.7686C5.20174 65.5448 1.32768 62.0159 0.390076 52.3628C0.39006 52.3628 -2.72337 20.975 12.0025 28.3826Z" fill="#2E4277"/>
<path d="M10.7596 30.4163C10.9321 30.4724 11.1009 30.5194 11.2794 30.5904C11.5667 33.9441 13.2155 38.2696 17.3427 40.6101C17.3427 40.6101 22.0719 43.346 27.77 37.4273C29.118 37.4061 30.5566 34.8422 32.1 34.5376C32.1 34.5376 18.1921 62.6594 12.0368 69.8008C12.0368 69.8008 11.558 69.4658 10.832 68.9131L10.9123 68.7586C10.9123 68.7586 5.55751 54.3096 10.7596 30.4163Z" fill="#4466FB"/>
<path d="M12.4251 37.844L15.2141 45.1775L9.73955 61.5594L10.8323 68.913L12.037 69.8007L16.1743 64.367L17.3565 46.3824L21.4936 42.9445L12.4251 37.844Z" fill="#2B3C67"/>
<path d="M12.0025 28.3827C12.0025 28.3827 11.7362 34.9233 17.3426 40.61C17.3426 40.61 13.2776 43.5316 11.7361 43.5316C11.7361 43.5316 8.88234 37.0726 9.31802 33.9452C9.75369 30.8178 11.4666 31.13 12.0025 28.3827Z" fill="#4A7FFF"/>
<path d="M32.1 34.5376C32.1 34.5376 31.2186 33.7783 30.1998 32.0001C30.1998 32.0001 24.874 41.0464 17.3427 40.61C17.3427 40.61 18.2949 45.1595 20.6859 47.317C20.6859 47.317 28.8284 43.0522 32.1 34.5376Z" fill="#4A7FFF"/>
<path d="M31.6415 50.1085H26.597L27.9341 54.9319L12.037 69.8008L32.1003 34.5376C32.1003 34.5376 36.0999 43.1077 31.6415 50.1085Z" fill="#384E85"/>
<path d="M5.17808 38.6266C5.17808 38.6266 6.66733 34.3532 12.0028 28.3827C12.0028 28.3827 9.17512 53.3802 10.9125 68.7586C10.9125 68.7586 4.73458 50.7662 4.73458 45.1391L7.91312 42.796L5.17808 38.6266Z" fill="#384E85"/>
<path d="M17.0157 26.8402C21.2993 29.6474 28.3792 27.6809 30.0126 26.0452C30.2505 26.6041 29.9477 26.9459 30.1997 27.5017C23.8702 31.6744 16.3937 28.3821 16.657 28.1287C16.811 27.5821 16.8645 27.3876 17.0157 26.8402Z" fill="#356AF1"/>
<path d="M12.7311 26.3669C12.9835 25.6109 13.8025 25.2021 14.5602 25.4538L17.7886 26.5261C18.5464 26.7779 18.9561 27.5948 18.7037 28.3509C18.4513 29.1069 17.6324 29.5157 16.8746 29.264L13.6462 28.1916C12.8884 27.9399 12.4787 27.1229 12.7311 26.3669Z" fill="#384E85"/>
</svg>
