<svg width="57" height="78" viewBox="0 0 57 78" fill="none" xmlns="http://www.w3.org/2000/svg">
<path d="M0.0291443 59.413L27.6858 43.132L56.3584 59.901L28.7017 76.1821L0.0291443 59.413Z" fill="#D9DDF6"/>
<path d="M28.7024 76.1819L56.3591 59.9009L56.3296 61.7187L28.6729 77.9998L28.7024 76.1819Z" fill="#AABAFD"/>
<path d="M28.7021 76.182L28.6725 77.9999L0 61.2308L0.0295973 59.413L28.7021 76.182Z" fill="#B7C5FD"/>
<path d="M27.6983 25.5139L50.0829 13.0347L50.0599 60.5943L28.5622 73.2496L27.6983 25.5139Z" fill="#1B2A4F"/>
<path d="M40.793 61.8904L40.7959 62.9253L47.8939 58.774L47.8911 57.7391L40.793 61.8904Z" fill="#384E85"/>
<path d="M40.7725 54.7356L40.7754 55.7705L47.8734 51.6192L47.8705 50.5844L40.7725 54.7356Z" fill="#384E85"/>
<path d="M40.7774 56.5243L40.7803 57.5592L47.8783 53.4079L47.8754 52.373L40.7774 56.5243Z" fill="#384E85"/>
<path d="M40.7823 58.313L40.7851 59.3479L47.8832 55.1966L47.8803 54.1617L40.7823 58.313Z" fill="#384E85"/>
<path d="M40.7881 60.1016L40.791 61.1365L47.8891 56.9852L47.8862 55.9503L40.7881 60.1016Z" fill="#384E85"/>
<path d="M40.793 30.3804L40.7959 31.4153L47.894 27.264L47.8911 26.2291L40.793 30.3804Z" fill="#384E85"/>
<path d="M40.7725 23.2252L40.7754 24.2601L47.8735 20.1088L47.8706 19.074L40.7725 23.2252Z" fill="#384E85"/>
<path d="M40.7774 25.0142L40.7803 26.0491L47.8783 21.8978L47.8754 20.8629L40.7774 25.0142Z" fill="#384E85"/>
<path d="M40.7823 26.8028L40.7852 27.8376L47.8832 23.6864L47.8803 22.6515L40.7823 26.8028Z" fill="#384E85"/>
<path d="M40.7881 28.5916L40.791 29.6264L47.8891 25.4752L47.8862 24.4403L40.7881 28.5916Z" fill="#384E85"/>
<path d="M28.5857 25.5137L28.5627 73.2494L6.27542 60.2148L6.29842 12.6552L28.5857 25.5137Z" fill="#2E4277"/>
<path d="M26.7794 27.2551L27.6999 26.7133L27.6803 31.7729L26.7598 32.3147L26.7794 27.2551Z" fill="#4466FB"/>
<path d="M7.18295 15.7947L8.10344 15.2528L27.6996 26.7136L26.7791 27.2555L7.18295 15.7947Z" fill="#B7C5FD"/>
<path d="M26.7789 27.2555L26.7593 32.3151L7.16312 20.8543L7.18274 15.7947L26.7789 27.2555Z" fill="#B7C5FD"/>
<path d="M26.7789 27.2555L26.7593 32.3151L7.16312 20.8543L7.18274 15.7947L26.7789 27.2555Z" fill="#4466FB"/>
<path d="M9.82149 18.7099L9.81872 19.4012L8.44632 18.5985L8.44909 17.9072L9.82149 18.7099Z" fill="#384E85"/>
<path d="M11.8143 19.8746L11.8116 20.5659L10.4424 19.7652L10.4452 19.0739L11.8143 19.8746Z" fill="#384E85"/>
<path d="M24.9797 27.5756L24.9769 28.2669L23.6045 27.4643L23.6073 26.7729L24.9797 27.5756Z" fill="#384E85"/>
<path d="M24.8965 29.8539C24.9976 29.7944 24.9974 29.6027 24.8959 29.4257C24.7944 29.2488 24.6301 29.1537 24.5289 29.2132C24.4277 29.2728 24.428 29.4645 24.5295 29.6414C24.631 29.8183 24.7953 29.9135 24.8965 29.8539Z" fill="white"/>
<path d="M23.831 28.7153C23.976 28.8001 24.0902 29.0033 24.0897 29.1691C24.0892 29.3349 23.9744 29.4042 23.8294 29.3194C23.6869 29.2361 23.5728 29.0329 23.5733 28.8671C23.5737 28.7012 23.6886 28.632 23.831 28.7153Z" fill="white"/>
<path d="M23.1328 28.8231C23.234 28.7635 23.2337 28.5718 23.1322 28.3949C23.0307 28.2179 22.8664 28.1228 22.7652 28.1823C22.6641 28.2419 22.6643 28.4336 22.7658 28.6105C22.8674 28.7875 23.0316 28.8826 23.1328 28.8231Z" fill="white"/>
<path d="M22.25 28.3069C22.3512 28.2474 22.3509 28.0557 22.2494 27.8787C22.1479 27.7018 21.9836 27.6067 21.8824 27.6662C21.7813 27.7258 21.7815 27.9175 21.883 28.0944C21.9845 28.2713 22.1488 28.3665 22.25 28.3069Z" fill="white"/>
<path d="M7.8513 16.8322L7.73324 16.7634L7.71857 20.4857L7.7178 20.5311L26.0923 31.2771L26.2103 31.3459L26.225 27.6236L26.2257 27.5783L7.8513 16.8322ZM26.0529 31.0708L7.87676 20.4404L7.89065 17.0386L26.0668 27.669L26.0529 31.0708Z" fill="#4466FB"/>
<path d="M26.7794 34.8621L27.6999 34.3202L27.6803 39.3798L26.7598 39.9217L26.7794 34.8621Z" fill="#4466FB"/>
<path d="M7.18295 23.4015L8.10344 22.8596L27.6996 34.3204L26.7791 34.8623L7.18295 23.4015Z" fill="#B7C5FD"/>
<path d="M26.7789 34.8622L26.7593 39.9218L7.16312 28.461L7.18274 23.4014L26.7789 34.8622Z" fill="#B7C5FD"/>
<path d="M26.7789 34.8622L26.7593 39.9218L7.16312 28.461L7.18274 23.4014L26.7789 34.8622Z" fill="#4466FB"/>
<path d="M9.82149 26.3166L9.81872 27.0079L8.44632 26.2052L8.44909 25.5139L9.82149 26.3166Z" fill="#384E85"/>
<path d="M11.8143 27.4814L11.8116 28.1727L10.4424 27.372L10.4452 26.6807L11.8143 27.4814Z" fill="#384E85"/>
<path d="M24.9797 35.1824L24.9769 35.8737L23.6045 35.0711L23.6073 34.3798L24.9797 35.1824Z" fill="#384E85"/>
<path d="M24.8965 37.4606C24.9976 37.4011 24.9974 37.2094 24.8959 37.0324C24.7944 36.8555 24.6301 36.7603 24.5289 36.8199C24.4277 36.8795 24.428 37.0712 24.5295 37.2481C24.631 37.425 24.7953 37.5202 24.8965 37.4606Z" fill="white"/>
<path d="M23.831 36.3221C23.976 36.4069 24.0902 36.6101 24.0897 36.7759C24.0892 36.9417 23.9744 37.011 23.8294 36.9262C23.6869 36.8429 23.5728 36.6397 23.5733 36.4739C23.5737 36.308 23.6886 36.2388 23.831 36.3221Z" fill="white"/>
<path d="M23.1318 36.4297C23.233 36.3702 23.2327 36.1785 23.1312 36.0015C23.0297 35.8246 22.8654 35.7295 22.7643 35.789C22.6631 35.8486 22.6634 36.0403 22.7649 36.2172C22.8664 36.3941 23.0307 36.4893 23.1318 36.4297Z" fill="white"/>
<path d="M22.25 35.9136C22.3512 35.8541 22.3509 35.6624 22.2494 35.4854C22.1479 35.3085 21.9836 35.2133 21.8824 35.2729C21.7813 35.3325 21.7815 35.5242 21.883 35.7011C21.9845 35.878 22.1488 35.9732 22.25 35.9136Z" fill="white"/>
<path d="M7.8513 24.439L7.73324 24.3702L7.71857 28.0925L7.7178 28.1379L26.0923 38.884L26.2103 38.9527L26.225 35.2305L26.2257 35.1851L7.8513 24.439ZM26.0529 38.6776L7.87678 28.0472L7.89067 24.6454L26.0668 35.2758L26.0529 38.6776Z" fill="#4466FB"/>
<path d="M26.7794 42.4691L27.6999 41.9272L27.6803 46.9869L26.7598 47.5288L26.7794 42.4691Z" fill="#4466FB"/>
<path d="M7.18295 31.0083L8.10344 30.4664L27.6996 41.9272L26.7791 42.4691L7.18295 31.0083Z" fill="#B7C5FD"/>
<path d="M26.7789 42.4693L26.7593 47.529L7.16312 36.0682L7.18274 31.0085L26.7789 42.4693Z" fill="#B7C5FD"/>
<path d="M26.7789 42.4693L26.7593 47.529L7.16312 36.0682L7.18274 31.0085L26.7789 42.4693Z" fill="#4466FB"/>
<path d="M9.82149 33.9237L9.81872 34.615L8.44632 33.8124L8.44909 33.1211L9.82149 33.9237Z" fill="#384E85"/>
<path d="M11.8143 35.0885L11.8116 35.7798L10.4424 34.979L10.4452 34.2877L11.8143 35.0885Z" fill="#384E85"/>
<path d="M24.9797 42.789L24.9769 43.4803L23.6045 42.6776L23.6073 41.9863L24.9797 42.789Z" fill="#384E85"/>
<path d="M24.8965 45.0676C24.9977 45.008 24.9974 44.8163 24.8959 44.6394C24.7944 44.4624 24.6301 44.3673 24.5289 44.4268C24.4277 44.4864 24.428 44.6781 24.5295 44.855C24.631 45.032 24.7953 45.1271 24.8965 45.0676Z" fill="white"/>
<path d="M23.831 43.9289C23.976 44.0137 24.0902 44.2169 24.0897 44.3827C24.0892 44.5485 23.9744 44.6178 23.8294 44.533C23.6869 44.4497 23.5728 44.2465 23.5733 44.0807C23.5737 43.9148 23.6886 43.8456 23.831 43.9289Z" fill="white"/>
<path d="M23.1318 44.0364C23.233 43.9769 23.2327 43.7852 23.1312 43.6082C23.0297 43.4313 22.8654 43.3362 22.7643 43.3957C22.6631 43.4553 22.6634 43.647 22.7649 43.8239C22.8664 44.0008 23.0307 44.096 23.1318 44.0364Z" fill="white"/>
<path d="M22.25 43.5203C22.3512 43.4608 22.3509 43.2691 22.2494 43.0921C22.1479 42.9152 21.9836 42.82 21.8824 42.8796C21.7813 42.9391 21.7815 43.1309 21.883 43.3078C21.9845 43.4847 22.1488 43.5799 22.25 43.5203Z" fill="white"/>
<path d="M7.8513 32.0462L7.73324 31.9774L7.71857 35.6997L7.7178 35.745L26.0923 46.4911L26.2103 46.5599L26.225 42.8376L26.2257 42.7923L7.8513 32.0462ZM26.0529 46.2848L7.87678 35.6544L7.89067 32.2526L26.0668 42.883L26.0529 46.2848Z" fill="#4466FB"/>
<path d="M26.7794 50.0761L27.6999 49.5342L27.6803 54.5938L26.7598 55.1357L26.7794 50.0761Z" fill="#4466FB"/>
<path d="M7.18295 38.6154L8.10344 38.0735L27.6996 49.5343L26.7791 50.0762L7.18295 38.6154Z" fill="#B7C5FD"/>
<path d="M26.7789 50.0758L26.7593 55.1354L7.16312 43.6746L7.18274 38.615L26.7789 50.0758Z" fill="#B7C5FD"/>
<path d="M26.7789 50.0758L26.7593 55.1354L7.16312 43.6746L7.18274 38.615L26.7789 50.0758Z" fill="#4466FB"/>
<path d="M9.82149 41.5303L9.81872 42.2216L8.44632 41.419L8.44909 40.7277L9.82149 41.5303Z" fill="#384E85"/>
<path d="M11.8143 42.6954L11.8116 43.3867L10.4424 42.586L10.4452 41.8947L11.8143 42.6954Z" fill="#384E85"/>
<path d="M24.9797 50.3961L24.9769 51.0874L23.6045 50.2848L23.6073 49.5935L24.9797 50.3961Z" fill="#384E85"/>
<path d="M24.8965 52.6746C24.9976 52.6151 24.9974 52.4234 24.8959 52.2464C24.7944 52.0695 24.6301 51.9743 24.5289 52.0339C24.4277 52.0934 24.428 52.2852 24.5295 52.4621C24.631 52.639 24.7953 52.7342 24.8965 52.6746Z" fill="white"/>
<path d="M23.831 51.5361C23.976 51.6209 24.0902 51.8241 24.0897 51.9899C24.0892 52.1557 23.9744 52.225 23.8294 52.1402C23.6869 52.0569 23.5728 51.8537 23.5733 51.6879C23.5737 51.522 23.6886 51.4528 23.831 51.5361Z" fill="white"/>
<path d="M23.1318 51.6437C23.233 51.5842 23.2327 51.3925 23.1312 51.2155C23.0297 51.0386 22.8654 50.9435 22.7643 51.003C22.6631 51.0626 22.6634 51.2543 22.7649 51.4312C22.8664 51.6081 23.0307 51.7033 23.1318 51.6437Z" fill="white"/>
<path d="M22.25 51.1276C22.3512 51.0681 22.3509 50.8764 22.2494 50.6994C22.1479 50.5225 21.9836 50.4273 21.8824 50.4869C21.7813 50.5464 21.7815 50.7382 21.883 50.9151C21.9845 51.092 22.1488 51.1872 22.25 51.1276Z" fill="white"/>
<path d="M7.8513 39.6526L7.73324 39.5839L7.71857 43.3062L7.7178 43.3515L26.0923 54.0976L26.2103 54.1664L26.225 50.4441L26.2257 50.3987L7.8513 39.6526ZM26.0529 53.8912L7.87678 43.2608L7.89067 39.859L26.0668 50.4894L26.0529 53.8912Z" fill="#4466FB"/>
<path d="M26.7794 57.6828L27.6999 57.1409L27.6803 62.2005L26.7598 62.7424L26.7794 57.6828Z" fill="#4466FB"/>
<path d="M7.18301 46.2219L8.1035 45.6801L27.6997 57.1409L26.7792 57.6827L7.18301 46.2219Z" fill="#B7C5FD"/>
<path d="M26.7789 57.683L26.7593 62.7426L7.16312 51.2818L7.18274 46.2222L26.7789 57.683Z" fill="#B7C5FD"/>
<path d="M26.7789 57.683L26.7593 62.7426L7.16312 51.2818L7.18274 46.2222L26.7789 57.683Z" fill="#386DF4"/>
<path d="M9.82149 49.1375L9.81872 49.8288L8.44632 49.0261L8.44909 48.3348L9.82149 49.1375Z" fill="#384E85"/>
<path d="M11.8143 50.3022L11.8116 50.9935L10.4424 50.1928L10.4452 49.5015L11.8143 50.3022Z" fill="#384E85"/>
<path d="M24.9797 58.003L24.9769 58.6943L23.6045 57.8916L23.6073 57.2003L24.9797 58.003Z" fill="#384E85"/>
<path d="M24.8965 60.2814C24.9976 60.2219 24.9974 60.0302 24.8959 59.8532C24.7944 59.6763 24.6301 59.5811 24.5289 59.6407C24.4277 59.7003 24.428 59.892 24.5295 60.0689C24.631 60.2458 24.7953 60.341 24.8965 60.2814Z" fill="white"/>
<path d="M23.831 59.1429C23.976 59.2277 24.0902 59.4309 24.0897 59.5967C24.0892 59.7625 23.9744 59.8318 23.8294 59.747C23.6869 59.6637 23.5728 59.4605 23.5733 59.2947C23.5737 59.1288 23.6886 59.0596 23.831 59.1429Z" fill="white"/>
<path d="M23.1318 59.2504C23.233 59.1909 23.2327 58.9992 23.1312 58.8222C23.0297 58.6453 22.8654 58.5501 22.7643 58.6097C22.6631 58.6693 22.6634 58.861 22.7649 59.0379C22.8664 59.2148 23.0307 59.31 23.1318 59.2504Z" fill="white"/>
<path d="M22.25 58.7343C22.3512 58.6748 22.3509 58.483 22.2494 58.3061C22.1479 58.1292 21.9836 58.034 21.8824 58.0936C21.7813 58.1531 21.7815 58.3448 21.883 58.5218C21.9845 58.6987 22.1488 58.7939 22.25 58.7343Z" fill="white"/>
<path d="M7.8513 47.2598L7.73324 47.191L7.71857 50.9133L7.7178 50.9587L26.0923 61.7048L26.2103 61.7735L26.225 58.0513L26.2257 58.0059L7.8513 47.2598ZM26.0529 61.4984L7.87678 50.868L7.89067 47.4662L26.0668 58.0966L26.0529 61.4984Z" fill="#4466FB"/>
<path d="M25.6047 63.5144V66.6581L25.5903 69.5689L24.3116 68.8121V65.9158L24.3259 62.7577L25.6047 63.5144Z" fill="#1B2A4F"/>
<path d="M11.0229 54.9716L12.3016 55.7284L12.2872 58.8865V61.7827L10.9942 61.026L11.0085 58.1297L11.0229 54.9716Z" fill="#1B2A4F"/>
<path d="M14.2836 56.8925L14.9589 57.2855L14.9445 60.4291V63.3399L14.2692 62.947L13.6514 62.5831L13.6658 59.6868L13.6802 56.5287L14.2836 56.8925Z" fill="#1B2A4F"/>
<path d="M18.9968 59.6431L20.2898 60.3999L20.2755 63.5581V66.4543L18.9825 65.6974V62.8012L18.9968 59.6431Z" fill="#1B2A4F"/>
<path d="M22.2587 61.5497L22.9484 61.9572V65.1008L22.934 68.0116L22.2443 67.6041L21.6553 67.2548V64.3586L21.6697 61.2004L22.2587 61.5497Z" fill="#1B2A4F"/>
<path d="M16.3386 58.0861L17.6173 58.8429V61.9865L17.603 64.8972L16.3242 64.1404V61.2442L16.3386 58.0861Z" fill="#1B2A4F"/>
<path d="M8.35034 53.4285L9.64343 54.1707L9.62905 57.3289V60.2251L8.33597 59.4829L8.35034 56.5722V53.4285Z" fill="#1B2A4F"/>
<path d="M38.8795 61.1101C38.8679 61.1219 37.8478 62.6719 38.2767 65.8659C39.1693 72.5944 36.5496 78.2895 28.6669 75.8001L28.354 75.7062L28.041 75.436C20.17 68.7076 17.5966 59.9711 18.5239 54.3112C18.9644 51.6104 17.9559 48.8979 17.9559 48.8744L17.3184 47.2187L21.6075 46.1619L22.3146 46.8899C22.8362 47.4301 23.381 47.8645 23.9259 48.1933C25.9313 49.3559 27.5194 48.7688 27.5309 48.7688L28.4352 48.4282L29.3277 49.8255C29.3393 49.8373 30.9274 52.2798 32.9213 53.4423C33.466 53.771 34.0109 53.9707 34.5441 54.0411L35.2397 54.135L39.5171 60.206L38.8795 61.1101Z" fill="#B7C5FD"/>
<path d="M41.3648 59.1133L37.0913 53.042L36.3888 52.9489C35.8703 52.8824 35.3189 52.6763 34.7674 52.3571C32.7784 51.1867 31.1963 48.7529 31.1831 48.7396L30.2838 47.3364L29.3845 47.6823L29.3647 47.6889C29.1678 47.7487 27.6514 48.1943 25.7805 47.0971C25.2291 46.7779 24.6843 46.339 24.159 45.8003L23.4567 45.0688L19.17 46.1328L17.3328 47.2152L21.6081 46.1617L22.3152 46.8897C22.8369 47.4299 23.3817 47.8644 23.9265 48.1931C25.9319 49.3557 27.52 48.7686 27.5316 48.7686L28.4358 48.428L29.3284 49.8254C29.34 49.8371 30.9281 52.2796 32.9219 53.4421C33.4667 53.7709 34.0116 53.9705 34.5448 54.041L35.2403 54.1349L39.5178 60.2058L38.8802 61.11C38.8686 61.1217 37.8485 62.6717 38.2774 65.8657C38.8342 70.063 38.0232 73.857 35.4215 75.5141L37.1176 74.521C39.8419 72.9118 40.6953 69.0549 40.1241 64.7723C39.704 61.5805 40.7215 60.031 40.7281 60.0177L41.3648 59.1133Z" fill="#D9DDF6"/>
<path d="M28.4247 50.5379C28.521 50.6896 30.3508 53.5727 32.9148 55.0722C33.5866 55.4651 34.3023 55.7527 35.0387 55.8525L37.6688 59.5898C37.6041 59.6807 36.3749 61.4082 36.8971 65.3297C37.6166 70.7544 35.7495 76.362 28.3589 74.0334C20.9795 67.7238 19.1499 59.9542 19.8973 55.3875C20.4397 52.0886 19.2242 48.9312 19.1602 48.765L21.8026 48.1115C22.5382 48.8725 23.2533 49.4217 23.9256 49.8149C26.4903 51.3148 28.328 50.5767 28.4247 50.5379Z" fill="#3955D1"/>
<path d="M30.8858 61.8637C31.451 62.1942 31.9052 62.9859 31.9034 63.6437L31.8896 68.5667C31.8878 69.2138 31.4306 69.4778 30.8655 69.1473L25.3965 65.9488C24.8314 65.6183 24.3771 64.8212 24.3789 64.1741L24.3927 59.2511C24.3946 58.5933 24.8518 58.3347 25.4169 58.6652L30.8858 61.8637ZM28.482 64.4642C28.7741 64.4809 28.9755 64.264 28.9766 63.8714C28.9781 63.3303 28.6056 62.6821 28.1453 62.4129C27.685 62.1437 27.3101 62.3548 27.3086 62.8959C27.3075 63.2885 27.5071 63.7399 27.7984 64.0644L27.7943 65.502L28.478 65.9018L28.482 64.4642Z" fill="white"/>
<path d="M28.1798 55.695C28.2033 55.7087 28.2266 55.7227 28.2502 55.7372C29.7039 56.6352 30.8847 58.8029 30.8798 60.5589L30.8761 61.8586L29.9874 61.3388L29.9911 60.0391C29.9944 58.8402 29.1997 57.3658 28.2154 56.7529C28.1984 56.7425 28.1814 56.7323 28.1645 56.7224C27.686 56.4425 27.2273 56.3906 26.8829 56.5741C26.5218 56.772 26.3242 57.2038 26.3226 57.782L26.3187 59.1931L25.4254 58.6707L25.4294 57.2596C25.4318 56.4002 25.7257 55.7644 26.2652 55.4689C26.783 55.1905 27.4668 55.2781 28.1798 55.695Z" fill="white"/>
<path d="M6.29916 12.6553L27.7968 0L50.0841 13.0347L28.5864 25.69L6.29916 12.6553Z" fill="#384E85"/>
<path d="M43.2431 12.0234C44.0187 12.4771 44.0223 13.2122 43.2517 13.6659L29.6395 21.6791C28.8689 22.1328 27.616 22.1331 26.8404 21.6794L13.1391 13.6663C12.3635 13.2126 12.3594 12.4772 13.13 12.0235L26.7422 4.01028C27.5128 3.55663 28.7662 3.55663 29.5419 4.01027L43.2431 12.0234Z" fill="#1B2A4F"/>
</svg>
