<svg width="71" height="89" viewBox="0 0 71 89" fill="none" xmlns="http://www.w3.org/2000/svg">
<path d="M18.0572 18.2929L34.0908 9.81677L34.0711 48.9769L18.0375 58.2946L18.0572 18.2929Z" fill="#1B2A4F"/>
<path d="M2.42868 10.1116L18.4623 0.793945L34.0904 9.81683L18.0568 19.1345L2.42868 10.1116Z" fill="#384E85"/>
<path d="M18.0573 19.1345L18.0375 58.2946L2.40939 49.2717L2.42916 10.1116L18.0573 19.1345Z" fill="#2E4277"/>
<path d="M4.3167 12.2928L3.37307 11.748L3.35461 48.726L17.0934 56.6585L17.0943 55.4784L4.29916 48.0908L4.3167 12.2928Z" fill="#384E85"/>
<path d="M4.31653 12.2928L4.29898 48.0908L17.0941 55.4785L17.1126 19.6796L4.31653 12.2928Z" fill="#1B2A4F"/>
<path d="M16.1463 21.0179L16.133 25.2611L5.59247 19.1755L5.60579 14.9324L16.1463 21.0179Z" fill="#2E4277"/>
<path d="M8.1526 17.6519L8.53344 17.4305L8.51948 20.1601L8.13864 20.3815L8.1526 17.6519Z" fill="#3955D1"/>
<path d="M7.48477 17.2662L7.86561 17.0449L8.53337 17.4305L8.15253 17.6518L7.48477 17.2662Z" fill="#6BB5FB"/>
<path d="M8.15248 17.6518L8.13852 20.3814L7.47076 19.9958L7.48472 17.2662L8.15248 17.6518Z" fill="#4466FB"/>
<path d="M9.51475 18.4385L9.89559 18.2172L9.88163 20.9468L9.50079 21.1681L9.51475 18.4385Z" fill="#3955D1"/>
<path d="M8.84692 18.0529L9.22776 17.8315L9.89552 18.2171L9.51468 18.4384L8.84692 18.0529Z" fill="#6BB5FB"/>
<path d="M9.51463 18.4384L9.50067 21.168L8.83292 20.7825L8.84687 18.0529L9.51463 18.4384Z" fill="#4466FB"/>
<path d="M10.8775 19.2251L11.2583 19.0038L11.2444 21.7334L10.8635 21.9547L10.8775 19.2251Z" fill="#3955D1"/>
<path d="M10.2097 18.8395L10.5905 18.6182L11.2583 19.0037L10.8774 19.225L10.2097 18.8395Z" fill="#6BB5FB"/>
<path d="M10.8774 19.225L10.8634 21.9546L10.1956 21.5691L10.2096 18.8395L10.8774 19.225Z" fill="#4466FB"/>
<path d="M12.2395 20.0116L12.6204 19.7903L12.6064 22.5199L12.2256 22.7412L12.2395 20.0116Z" fill="#3955D1"/>
<path d="M11.5717 19.626L11.9526 19.4047L12.6203 19.7902L12.2395 20.0115L11.5717 19.626Z" fill="#6BB5FB"/>
<path d="M12.2394 20.0115L12.2255 22.7411L11.5577 22.3556L11.5717 19.626L12.2394 20.0115Z" fill="#4466FB"/>
<path d="M13.6022 20.7981L13.9831 20.5768L13.9691 23.3064L13.5883 23.5277L13.6022 20.7981Z" fill="#3955D1"/>
<path d="M12.9344 20.4125L13.3152 20.1912L13.983 20.5767L13.6021 20.798L12.9344 20.4125Z" fill="#6BB5FB"/>
<path d="M13.6021 20.798L13.5881 23.5276L12.9204 23.1421L12.9343 20.4125L13.6021 20.798Z" fill="#4466FB"/>
<path d="M14.9643 21.5849L15.3452 21.3635L15.3312 24.0931L14.9504 24.3144L14.9643 21.5849Z" fill="#3955D1"/>
<path d="M14.2965 21.1992L14.6774 20.9779L15.3451 21.3634L14.9643 21.5848L14.2965 21.1992Z" fill="#6BB5FB"/>
<path d="M14.9642 21.5847L14.9502 24.3143L14.2825 23.9288L14.2965 21.1992L14.9642 21.5847Z" fill="#4466FB"/>
<path d="M6.78996 16.8653L7.1708 16.6439L7.15684 19.3735L6.776 19.5948L6.78996 16.8653Z" fill="#3955D1"/>
<path d="M6.12216 16.4796L6.503 16.2583L7.17075 16.6438L6.78992 16.8652L6.12216 16.4796Z" fill="#6BB5FB"/>
<path d="M6.78984 16.8651L6.77588 19.5947L6.10812 19.2092L6.12208 16.4796L6.78984 16.8651Z" fill="#4466FB"/>
<path d="M16.1463 26.6624L16.133 30.9054L5.59247 24.8199L5.60579 20.5768L16.1463 26.6624Z" fill="#2E4277"/>
<path d="M8.1526 23.2962L8.53344 23.0748L8.51948 25.8044L8.13864 26.0257L8.1526 23.2962Z" fill="#3955D1"/>
<path d="M7.48477 22.9105L7.86561 22.6892L8.53337 23.0747L8.15253 23.2961L7.48477 22.9105Z" fill="#6BB5FB"/>
<path d="M8.15248 23.2961L8.13852 26.0256L7.47076 25.6401L7.48472 22.9105L8.15248 23.2961Z" fill="#4466FB"/>
<path d="M9.51475 24.0829L9.89559 23.8616L9.88163 26.5911L9.50079 26.8125L9.51475 24.0829Z" fill="#3955D1"/>
<path d="M8.84692 23.6973L9.22776 23.476L9.89552 23.8615L9.51468 24.0828L8.84692 23.6973Z" fill="#6BB5FB"/>
<path d="M9.51463 24.0828L9.50067 26.8124L8.83292 26.4269L8.84687 23.6973L9.51463 24.0828Z" fill="#4466FB"/>
<path d="M10.8775 24.8695L11.2583 24.6482L11.2444 27.3778L10.8635 27.5991L10.8775 24.8695Z" fill="#3955D1"/>
<path d="M10.2097 24.4839L10.5905 24.2626L11.2583 24.6481L10.8774 24.8694L10.2097 24.4839Z" fill="#6BB5FB"/>
<path d="M10.8774 24.8694L10.8634 27.599L10.1956 27.2135L10.2096 24.4839L10.8774 24.8694Z" fill="#4466FB"/>
<path d="M12.2395 25.656L12.6204 25.4347L12.6064 28.1643L12.2256 28.3856L12.2395 25.656Z" fill="#3955D1"/>
<path d="M11.5717 25.2704L11.9526 25.0491L12.6203 25.4346L12.2395 25.6559L11.5717 25.2704Z" fill="#6BB5FB"/>
<path d="M12.2394 25.6559L12.2255 28.3855L11.5577 28L11.5717 25.2704L12.2394 25.6559Z" fill="#4466FB"/>
<path d="M13.6022 26.4425L13.9831 26.2212L13.9691 28.9508L13.5883 29.1721L13.6022 26.4425Z" fill="#3955D1"/>
<path d="M12.9344 26.0569L13.3152 25.8356L13.983 26.2211L13.6021 26.4424L12.9344 26.0569Z" fill="#6BB5FB"/>
<path d="M13.6021 26.4424L13.5881 29.172L12.9204 28.7865L12.9343 26.0569L13.6021 26.4424Z" fill="#4466FB"/>
<path d="M14.9643 27.2292L15.3452 27.0079L15.3312 29.7375L14.9504 29.9588L14.9643 27.2292Z" fill="#3955D1"/>
<path d="M14.2965 26.8436L14.6774 26.6223L15.3451 27.0078L14.9643 27.2292L14.2965 26.8436Z" fill="#6BB5FB"/>
<path d="M14.9642 27.2292L14.9502 29.9588L14.2825 29.5732L14.2965 26.8436L14.9642 27.2292Z" fill="#4466FB"/>
<path d="M6.78996 22.5096L7.1708 22.2883L7.15684 25.0179L6.776 25.2392L6.78996 22.5096Z" fill="#3955D1"/>
<path d="M6.12216 22.124L6.503 21.9027L7.17075 22.2882L6.78992 22.5096L6.12216 22.124Z" fill="#6BB5FB"/>
<path d="M6.78984 22.5096L6.77588 25.2392L6.10812 24.8536L6.12208 22.124L6.78984 22.5096Z" fill="#4466FB"/>
<path d="M16.1463 32.307L16.133 36.5501L5.59247 30.4645L5.60579 26.2214L16.1463 32.307Z" fill="#2E4277"/>
<path d="M8.1526 28.9408L8.53344 28.7195L8.51948 31.4491L8.13864 31.6704L8.1526 28.9408Z" fill="#3955D1"/>
<path d="M7.48477 28.5552L7.86561 28.3339L8.53337 28.7194L8.15253 28.9407L7.48477 28.5552Z" fill="#6BB5FB"/>
<path d="M8.15248 28.9407L8.13852 31.6703L7.47076 31.2848L7.48472 28.5552L8.15248 28.9407Z" fill="#4466FB"/>
<path d="M9.51475 29.7276L9.89559 29.5062L9.88163 32.2358L9.50079 32.4571L9.51475 29.7276Z" fill="#3955D1"/>
<path d="M8.84692 29.3419L9.22776 29.1206L9.89552 29.5061L9.51468 29.7275L8.84692 29.3419Z" fill="#6BB5FB"/>
<path d="M9.51463 29.7274L9.50067 32.457L8.83292 32.0715L8.84687 29.3419L9.51463 29.7274Z" fill="#4466FB"/>
<path d="M10.8775 30.5142L11.2583 30.2928L11.2444 33.0224L10.8635 33.2438L10.8775 30.5142Z" fill="#3955D1"/>
<path d="M10.2097 30.1285L10.5905 29.9072L11.2583 30.2927L10.8774 30.5141L10.2097 30.1285Z" fill="#6BB5FB"/>
<path d="M10.8774 30.5141L10.8634 33.2437L10.1956 32.8581L10.2096 30.1285L10.8774 30.5141Z" fill="#4466FB"/>
<path d="M12.2395 31.3007L12.6204 31.0793L12.6064 33.8089L12.2256 34.0303L12.2395 31.3007Z" fill="#3955D1"/>
<path d="M11.5717 30.915L11.9526 30.6937L12.6203 31.0793L12.2395 31.3006L11.5717 30.915Z" fill="#6BB5FB"/>
<path d="M12.2394 31.3006L12.2255 34.0302L11.5577 33.6446L11.5717 30.915L12.2394 31.3006Z" fill="#4466FB"/>
<path d="M13.6022 32.0872L13.9831 31.8658L13.9691 34.5955L13.5883 34.8168L13.6022 32.0872Z" fill="#3955D1"/>
<path d="M12.9344 31.7016L13.3152 31.4802L13.983 31.8658L13.6021 32.0871L12.9344 31.7016Z" fill="#6BB5FB"/>
<path d="M13.6021 32.087L13.5881 34.8167L12.9204 34.4311L12.9343 31.7015L13.6021 32.087Z" fill="#4466FB"/>
<path d="M14.9643 32.8739L15.3452 32.6526L15.3312 35.3822L14.9504 35.6035L14.9643 32.8739Z" fill="#3955D1"/>
<path d="M14.2965 32.4883L14.6774 32.267L15.3451 32.6525L14.9643 32.8738L14.2965 32.4883Z" fill="#6BB5FB"/>
<path d="M14.9642 32.8738L14.9502 35.6034L14.2825 35.2179L14.2965 32.4883L14.9642 32.8738Z" fill="#4466FB"/>
<path d="M6.78996 28.1543L7.1708 27.933L7.15684 30.6626L6.776 30.8839L6.78996 28.1543Z" fill="#3955D1"/>
<path d="M6.12216 27.7687L6.503 27.5474L7.17075 27.9329L6.78992 28.1542L6.12216 27.7687Z" fill="#6BB5FB"/>
<path d="M6.78984 28.1542L6.77588 30.8838L6.10812 30.4983L6.12208 27.7687L6.78984 28.1542Z" fill="#4466FB"/>
<path d="M16.1463 37.9514L16.133 42.1945L5.59247 36.109L5.60579 31.8658L16.1463 37.9514Z" fill="#2E4277"/>
<path d="M8.1526 34.5853L8.53344 34.364L8.51948 37.0936L8.13864 37.3149L8.1526 34.5853Z" fill="#3955D1"/>
<path d="M7.48477 34.1997L7.86561 33.9784L8.53337 34.3639L8.15253 34.5852L7.48477 34.1997Z" fill="#6BB5FB"/>
<path d="M8.15248 34.5852L8.13852 37.3148L7.47076 36.9293L7.48472 34.1997L8.15248 34.5852Z" fill="#4466FB"/>
<path d="M9.51475 35.3719L9.89559 35.1506L9.88163 37.8802L9.50079 38.1015L9.51475 35.3719Z" fill="#3955D1"/>
<path d="M8.84692 34.9863L9.22776 34.765L9.89552 35.1505L9.51468 35.3719L8.84692 34.9863Z" fill="#6BB5FB"/>
<path d="M9.51463 35.3719L9.50067 38.1015L8.83292 37.7159L8.84687 34.9863L9.51463 35.3719Z" fill="#4466FB"/>
<path d="M10.8775 36.1586L11.2583 35.9373L11.2444 38.6669L10.8635 38.8882L10.8775 36.1586Z" fill="#3955D1"/>
<path d="M10.2097 35.773L10.5905 35.5516L11.2583 35.9372L10.8774 36.1585L10.2097 35.773Z" fill="#6BB5FB"/>
<path d="M10.8774 36.1585L10.8634 38.8881L10.1956 38.5025L10.2096 35.7729L10.8774 36.1585Z" fill="#4466FB"/>
<path d="M12.2395 36.9451L12.6204 36.7238L12.6064 39.4534L12.2256 39.6747L12.2395 36.9451Z" fill="#3955D1"/>
<path d="M11.5717 36.5594L11.9526 36.3381L12.6203 36.7236L12.2395 36.945L11.5717 36.5594Z" fill="#6BB5FB"/>
<path d="M12.2394 36.945L12.2255 39.6746L11.5577 39.2891L11.5717 36.5594L12.2394 36.945Z" fill="#4466FB"/>
<path d="M13.6022 37.7316L13.9831 37.5103L13.9691 40.2398L13.5883 40.4612L13.6022 37.7316Z" fill="#3955D1"/>
<path d="M12.9344 37.3459L13.3152 37.1246L13.983 37.5102L13.6021 37.7315L12.9344 37.3459Z" fill="#6BB5FB"/>
<path d="M13.6021 37.7315L13.5881 40.4611L12.9204 40.0755L12.9343 37.3459L13.6021 37.7315Z" fill="#4466FB"/>
<path d="M14.9643 38.5183L15.3452 38.297L15.3312 41.0266L14.9504 41.2479L14.9643 38.5183Z" fill="#3955D1"/>
<path d="M14.2965 38.1327L14.6774 37.9114L15.3451 38.2969L14.9643 38.5182L14.2965 38.1327Z" fill="#6BB5FB"/>
<path d="M14.9642 38.5182L14.9502 41.2478L14.2825 40.8623L14.2965 38.1327L14.9642 38.5182Z" fill="#4466FB"/>
<path d="M6.78996 33.7987L7.1708 33.5774L7.15684 36.307L6.776 36.5283L6.78996 33.7987Z" fill="#3955D1"/>
<path d="M6.12216 33.4131L6.503 33.1918L7.17075 33.5773L6.78992 33.7986L6.12216 33.4131Z" fill="#6BB5FB"/>
<path d="M6.78984 33.7986L6.77588 36.5282L6.10812 36.1427L6.12208 33.4131L6.78984 33.7986Z" fill="#4466FB"/>
<path d="M16.1463 43.5959L16.133 47.839L5.59247 41.7535L5.60579 37.5104L16.1463 43.5959Z" fill="#2E4277"/>
<path d="M8.1526 40.2297L8.53344 40.0084L8.51948 42.738L8.13864 42.9593L8.1526 40.2297Z" fill="#3955D1"/>
<path d="M7.48477 39.8441L7.86561 39.6228L8.53337 40.0083L8.15253 40.2297L7.48477 39.8441Z" fill="#6BB5FB"/>
<path d="M8.15248 40.2296L8.13852 42.9592L7.47076 42.5737L7.48472 39.8441L8.15248 40.2296Z" fill="#4466FB"/>
<path d="M9.51475 41.0165L9.89559 40.7952L9.88163 43.5248L9.50079 43.7461L9.51475 41.0165Z" fill="#3955D1"/>
<path d="M8.84692 40.6309L9.22776 40.4095L9.89552 40.7951L9.51468 41.0164L8.84692 40.6309Z" fill="#6BB5FB"/>
<path d="M9.51463 41.0164L9.50067 43.746L8.83292 43.3605L8.84687 40.6309L9.51463 41.0164Z" fill="#4466FB"/>
<path d="M10.8775 41.803L11.2583 41.5817L11.2444 44.3112L10.8635 44.5326L10.8775 41.803Z" fill="#3955D1"/>
<path d="M10.2097 41.4174L10.5905 41.196L11.2583 41.5816L10.8774 41.8029L10.2097 41.4174Z" fill="#6BB5FB"/>
<path d="M10.8774 41.8029L10.8634 44.5325L10.1956 44.147L10.2096 41.4174L10.8774 41.8029Z" fill="#4466FB"/>
<path d="M12.2395 42.5896L12.6204 42.3683L12.6064 45.0979L12.2256 45.3192L12.2395 42.5896Z" fill="#3955D1"/>
<path d="M11.5717 42.204L11.9526 41.9827L12.6203 42.3682L12.2395 42.5895L11.5717 42.204Z" fill="#6BB5FB"/>
<path d="M12.2394 42.5895L12.2255 45.3191L11.5577 44.9336L11.5717 42.204L12.2394 42.5895Z" fill="#4466FB"/>
<path d="M13.6022 43.3761L13.9831 43.1548L13.9691 45.8844L13.5883 46.1057L13.6022 43.3761Z" fill="#3955D1"/>
<path d="M12.9344 42.9905L13.3152 42.7692L13.983 43.1547L13.6021 43.376L12.9344 42.9905Z" fill="#6BB5FB"/>
<path d="M13.6021 43.376L13.5881 46.1056L12.9204 45.7201L12.9343 42.9905L13.6021 43.376Z" fill="#4466FB"/>
<path d="M14.9643 44.1628L15.3452 43.9415L15.3312 46.6711L14.9504 46.8924L14.9643 44.1628Z" fill="#3955D1"/>
<path d="M14.2965 43.7772L14.6774 43.5559L15.3451 43.9414L14.9643 44.1628L14.2965 43.7772Z" fill="#6BB5FB"/>
<path d="M14.9642 44.1628L14.9502 46.8924L14.2825 46.5068L14.2965 43.7772L14.9642 44.1628Z" fill="#4466FB"/>
<path d="M6.78996 39.4432L7.1708 39.2219L7.15684 41.9515L6.776 42.1728L6.78996 39.4432Z" fill="#3955D1"/>
<path d="M6.12216 39.0576L6.503 38.8363L7.17075 39.2218L6.78992 39.4431L6.12216 39.0576Z" fill="#6BB5FB"/>
<path d="M6.78984 39.4431L6.77588 42.1727L6.10812 41.7872L6.12208 39.0576L6.78984 39.4431Z" fill="#4466FB"/>
<path d="M16.1463 49.2404L16.133 53.4835L5.59247 47.3979L5.60579 43.1548L16.1463 49.2404Z" fill="#2E4277"/>
<path d="M8.1526 45.8743L8.53344 45.653L8.51948 48.3825L8.13864 48.6039L8.1526 45.8743Z" fill="#3955D1"/>
<path d="M7.48477 45.4886L7.86561 45.2673L8.53337 45.6529L8.15253 45.8742L7.48477 45.4886Z" fill="#6BB5FB"/>
<path d="M8.15248 45.8742L8.13852 48.6038L7.47076 48.2183L7.48472 45.4886L8.15248 45.8742Z" fill="#4466FB"/>
<path d="M9.51475 46.6609L9.89559 46.4396L9.88163 49.1692L9.50079 49.3905L9.51475 46.6609Z" fill="#3955D1"/>
<path d="M8.84692 46.2753L9.22776 46.054L9.89552 46.4395L9.51468 46.6608L8.84692 46.2753Z" fill="#6BB5FB"/>
<path d="M9.51463 46.6608L9.50067 49.3904L8.83292 49.0049L8.84687 46.2753L9.51463 46.6608Z" fill="#4466FB"/>
<path d="M10.8775 47.4475L11.2583 47.2262L11.2444 49.9558L10.8635 50.1771L10.8775 47.4475Z" fill="#3955D1"/>
<path d="M10.2097 47.0619L10.5905 46.8406L11.2583 47.2261L10.8774 47.4474L10.2097 47.0619Z" fill="#6BB5FB"/>
<path d="M10.8774 47.4474L10.8634 50.177L10.1956 49.7915L10.2096 47.0619L10.8774 47.4474Z" fill="#4466FB"/>
<path d="M12.2395 48.234L12.6204 48.0127L12.6064 50.7423L12.2256 50.9636L12.2395 48.234Z" fill="#3955D1"/>
<path d="M11.5717 47.8484L11.9526 47.6271L12.6203 48.0126L12.2395 48.2339L11.5717 47.8484Z" fill="#6BB5FB"/>
<path d="M12.2394 48.2339L12.2255 50.9635L11.5577 50.578L11.5717 47.8484L12.2394 48.2339Z" fill="#4466FB"/>
<path d="M13.6022 49.0205L13.9831 48.7992L13.9691 51.5288L13.5883 51.7501L13.6022 49.0205Z" fill="#3955D1"/>
<path d="M12.9344 48.6349L13.3152 48.4136L13.983 48.7991L13.6021 49.0204L12.9344 48.6349Z" fill="#6BB5FB"/>
<path d="M13.6021 49.0204L13.5881 51.75L12.9204 51.3645L12.9343 48.6349L13.6021 49.0204Z" fill="#4466FB"/>
<path d="M14.9643 49.8073L15.3452 49.5859L15.3312 52.3155L14.9504 52.5369L14.9643 49.8073Z" fill="#3955D1"/>
<path d="M14.2965 49.4216L14.6774 49.2003L15.3451 49.5858L14.9643 49.8072L14.2965 49.4216Z" fill="#6BB5FB"/>
<path d="M14.9642 49.8072L14.9502 52.5367L14.2825 52.1512L14.2965 49.4216L14.9642 49.8072Z" fill="#4466FB"/>
<path d="M6.78996 45.0877L7.1708 44.8663L7.15684 47.5959L6.776 47.8172L6.78996 45.0877Z" fill="#3955D1"/>
<path d="M6.12216 44.702L6.503 44.4807L7.17075 44.8662L6.78992 45.0876L6.12216 44.702Z" fill="#6BB5FB"/>
<path d="M6.78984 45.0876L6.77588 47.8171L6.10812 47.4316L6.12208 44.702L6.78984 45.0876Z" fill="#4466FB"/>
<path d="M30.3333 48.1054C30.277 48.1379 30.2306 48.2183 30.2308 48.283C30.231 48.3491 30.2776 48.3757 30.334 48.3432L32.8369 46.8982C32.8932 46.8656 32.9396 46.7853 32.9394 46.7192C32.9392 46.6545 32.8925 46.6278 32.8362 46.6604L30.3333 48.1054Z" fill="#384E85"/>
<path d="M30.3323 47.5539C30.2759 47.5864 30.2296 47.6667 30.2297 47.7329C30.2299 47.7976 30.2766 47.8242 30.3329 47.7917L32.8358 46.3466C32.8921 46.3141 32.9385 46.2338 32.9383 46.169C32.9381 46.1029 32.8915 46.0763 32.8351 46.1088L30.3323 47.5539Z" fill="#384E85"/>
<path d="M30.3306 47.0036C30.2743 47.0361 30.2279 47.1151 30.2281 47.1812C30.2283 47.2459 30.275 47.2725 30.3313 47.24L32.8342 45.795C32.8905 45.7624 32.9369 45.6821 32.9367 45.6174C32.9365 45.5512 32.8898 45.5261 32.8335 45.5586L30.3306 47.0036Z" fill="#384E85"/>
<path d="M30.3289 46.4521C30.2726 46.4846 30.2262 46.5636 30.2264 46.6297C30.2266 46.6944 30.2732 46.721 30.3296 46.6885L32.8325 45.2434C32.8888 45.2109 32.9352 45.1306 32.935 45.0659C32.9348 44.9997 32.8881 44.9745 32.8318 45.0071L30.3289 46.4521Z" fill="#384E85"/>
<path d="M30.3257 45.349C30.2694 45.3815 30.223 45.4604 30.2232 45.5265C30.2234 45.5913 30.2701 45.6179 30.3264 45.5853L32.8293 44.1403C32.8856 44.1078 32.932 44.0274 32.9318 43.9627C32.9316 43.8966 32.8849 43.8714 32.8286 43.9039L30.3257 45.349Z" fill="#384E85"/>
<path d="M30.3273 45.9006C30.271 45.9331 30.2246 46.012 30.2248 46.0782C30.225 46.1429 30.2717 46.1695 30.328 46.137L32.8309 44.6919C32.8872 44.6594 32.9336 44.5791 32.9334 44.5144C32.9332 44.4482 32.8866 44.423 32.8302 44.4555L30.3273 45.9006Z" fill="#384E85"/>
<path d="M30.3333 43.085C30.277 43.1176 30.2306 43.1979 30.2308 43.2626C30.231 43.3287 30.2776 43.3553 30.334 43.3228L32.8369 41.8778C32.8932 41.8452 32.9396 41.7649 32.9394 41.6988C32.9392 41.6341 32.8925 41.6075 32.8362 41.64L30.3333 43.085Z" fill="#384E85"/>
<path d="M30.3323 42.5335C30.2759 42.566 30.2296 42.6463 30.2297 42.7124C30.2299 42.7772 30.2766 42.8038 30.3329 42.7713L32.8358 41.3262C32.8921 41.2937 32.9385 41.2134 32.9383 41.1486C32.9381 41.0825 32.8915 41.0559 32.8351 41.0884L30.3323 42.5335Z" fill="#384E85"/>
<path d="M30.3306 41.9834C30.2743 42.0159 30.2279 42.0948 30.2281 42.1609C30.2283 42.2257 30.275 42.2523 30.3313 42.2197L32.8342 40.7747C32.8905 40.7422 32.9369 40.6618 32.9367 40.5971C32.9365 40.531 32.8898 40.5058 32.8335 40.5383L30.3306 41.9834Z" fill="#384E85"/>
<path d="M30.3289 41.4317C30.2726 41.4642 30.2262 41.5432 30.2264 41.6093C30.2266 41.674 30.2732 41.7006 30.3296 41.6681L32.8325 40.2231C32.8888 40.1905 32.9352 40.1102 32.935 40.0455C32.9348 39.9793 32.8881 39.9542 32.8318 39.9867L30.3289 41.4317Z" fill="#384E85"/>
<path d="M30.3257 40.3287C30.2694 40.3612 30.223 40.4401 30.2232 40.5063C30.2234 40.571 30.2701 40.5976 30.3264 40.5651L32.8293 39.12C32.8856 39.0875 32.932 39.0072 32.9318 38.9425C32.9316 38.8763 32.8849 38.8511 32.8286 38.8836L30.3257 40.3287Z" fill="#384E85"/>
<path d="M30.3273 40.8802C30.271 40.9127 30.2246 40.9916 30.2248 41.0578C30.225 41.1225 30.2717 41.1491 30.328 41.1166L32.8309 39.6715C32.8872 39.639 32.9336 39.5587 32.9334 39.494C32.9332 39.4278 32.8866 39.4026 32.8302 39.4352L30.3273 40.8802Z" fill="#384E85"/>
<path d="M30.3333 38.0645C30.277 38.0971 30.2306 38.1774 30.2308 38.2421C30.231 38.3082 30.2776 38.3348 30.334 38.3023L32.8369 36.8573C32.8932 36.8247 32.9396 36.7444 32.9394 36.6783C32.9392 36.6136 32.8925 36.587 32.8362 36.6195L30.3333 38.0645Z" fill="#384E85"/>
<path d="M30.3323 37.5131C30.2759 37.5456 30.2296 37.6259 30.2297 37.6921C30.2299 37.7568 30.2766 37.7834 30.3329 37.7509L32.8358 36.3058C32.8921 36.2733 32.9385 36.193 32.9383 36.1283C32.9381 36.0621 32.8915 36.0355 32.8351 36.0681L30.3323 37.5131Z" fill="#384E85"/>
<path d="M30.3306 36.9629C30.2743 36.9954 30.2279 37.0743 30.2281 37.1404C30.2283 37.2052 30.275 37.2318 30.3313 37.1992L32.8342 35.7542C32.8905 35.7217 32.9369 35.6413 32.9367 35.5766C32.9365 35.5105 32.8898 35.4853 32.8335 35.5178L30.3306 36.9629Z" fill="#384E85"/>
<path d="M30.3289 36.4113C30.2726 36.4439 30.2262 36.5228 30.2264 36.5889C30.2266 36.6536 30.2732 36.6802 30.3296 36.6477L32.8325 35.2027C32.8888 35.1702 32.9352 35.0898 32.935 35.0251C32.9348 34.959 32.8881 34.9338 32.8318 34.9663L30.3289 36.4113Z" fill="#384E85"/>
<path d="M30.3257 35.3082C30.2694 35.3407 30.223 35.4196 30.2232 35.4857C30.2234 35.5505 30.2701 35.5771 30.3264 35.5446L32.8293 34.0995C32.8856 34.067 32.932 33.9867 32.9318 33.9219C32.9316 33.8558 32.8849 33.8306 32.8286 33.8631L30.3257 35.3082Z" fill="#384E85"/>
<path d="M30.3273 35.8597C30.271 35.8922 30.2246 35.9711 30.2248 36.0373C30.225 36.102 30.2717 36.1286 30.328 36.0961L32.8309 34.651C32.8872 34.6185 32.9336 34.5382 32.9334 34.4735C32.9332 34.4073 32.8866 34.3821 32.8302 34.4147L30.3273 35.8597Z" fill="#384E85"/>
<path d="M30.3333 33.044C30.277 33.0765 30.2306 33.1569 30.2308 33.2216C30.231 33.2877 30.2776 33.3143 30.334 33.2818L32.8369 31.8368C32.8932 31.8042 32.9396 31.7239 32.9394 31.6578C32.9392 31.5931 32.8925 31.5665 32.8362 31.599L30.3333 33.044Z" fill="#384E85"/>
<path d="M30.3323 32.4926C30.2759 32.5251 30.2296 32.6054 30.2297 32.6716C30.2299 32.7363 30.2766 32.7629 30.3329 32.7304L32.8358 31.2853C32.8921 31.2528 32.9385 31.1725 32.9383 31.1078C32.9381 31.0416 32.8915 31.015 32.8351 31.0475L30.3323 32.4926Z" fill="#384E85"/>
<path d="M30.3306 31.9423C30.2743 31.9749 30.2279 32.0538 30.2281 32.1199C30.2283 32.1846 30.275 32.2113 30.3313 32.1787L32.8342 30.7337C32.8905 30.7012 32.9369 30.6208 32.9367 30.5561C32.9365 30.49 32.8898 30.4648 32.8335 30.4973L30.3306 31.9423Z" fill="#384E85"/>
<path d="M30.3289 31.3908C30.2726 31.4234 30.2262 31.5023 30.2264 31.5684C30.2266 31.6331 30.2732 31.6597 30.3296 31.6272L32.8325 30.1822C32.8888 30.1496 32.9352 30.0693 32.935 30.0046C32.9348 29.9385 32.8881 29.9133 32.8318 29.9458L30.3289 31.3908Z" fill="#384E85"/>
<path d="M30.3257 30.2877C30.2694 30.3202 30.223 30.3991 30.2232 30.4652C30.2234 30.53 30.2701 30.5566 30.3264 30.5241L32.8293 29.079C32.8856 29.0465 32.932 28.9662 32.9318 28.9014C32.9316 28.8353 32.8849 28.8101 32.8286 28.8426L30.3257 30.2877Z" fill="#384E85"/>
<path d="M30.3273 30.8392C30.271 30.8717 30.2246 30.9506 30.2248 31.0168C30.225 31.0815 30.2717 31.1081 30.328 31.0756L32.8309 29.6305C32.8872 29.598 32.9336 29.5177 32.9334 29.453C32.9332 29.3868 32.8866 29.3616 32.8302 29.3941L30.3273 30.8392Z" fill="#384E85"/>
<path d="M30.3333 28.0236C30.277 28.0562 30.2306 28.1365 30.2308 28.2012C30.231 28.2673 30.2776 28.2939 30.334 28.2614L32.8369 26.8164C32.8932 26.7838 32.9396 26.7035 32.9394 26.6374C32.9392 26.5727 32.8925 26.5461 32.8362 26.5786L30.3333 28.0236Z" fill="#384E85"/>
<path d="M30.3323 27.4721C30.2759 27.5046 30.2296 27.5849 30.2297 27.651C30.2299 27.7158 30.2766 27.7424 30.3329 27.7099L32.8358 26.2648C32.8921 26.2323 32.9385 26.152 32.9383 26.0872C32.9381 26.0211 32.8915 25.9945 32.8351 26.027L30.3323 27.4721Z" fill="#384E85"/>
<path d="M30.3306 26.9218C30.2743 26.9544 30.2279 27.0333 30.2281 27.0994C30.2283 27.1641 30.275 27.1908 30.3313 27.1582L32.8342 25.7132C32.8905 25.6807 32.9369 25.6003 32.9367 25.5356C32.9365 25.4695 32.8898 25.4443 32.8335 25.4768L30.3306 26.9218Z" fill="#384E85"/>
<path d="M30.3289 26.3703C30.2726 26.4028 30.2262 26.4818 30.2264 26.5479C30.2266 26.6126 30.2732 26.6392 30.3296 26.6067L32.8325 25.1617C32.8888 25.1291 32.9352 25.0488 32.935 24.9841C32.9348 24.9179 32.8881 24.8928 32.8318 24.9253L30.3289 26.3703Z" fill="#384E85"/>
<path d="M30.3257 25.2672C30.2694 25.2997 30.223 25.3786 30.2232 25.4447C30.2234 25.5095 30.2701 25.5361 30.3264 25.5036L32.8293 24.0585C32.8856 24.026 32.932 23.9456 32.9318 23.8809C32.9316 23.8148 32.8849 23.7896 32.8286 23.8221L30.3257 25.2672Z" fill="#384E85"/>
<path d="M30.3273 25.8188C30.271 25.8513 30.2246 25.9302 30.2248 25.9964C30.225 26.0611 30.2717 26.0877 30.328 26.0552L32.8309 24.6101C32.8872 24.5776 32.9336 24.4973 32.9334 24.4326C32.9332 24.3664 32.8866 24.3412 32.8302 24.3738L30.3273 25.8188Z" fill="#384E85"/>
<path d="M30.3333 23.0033C30.277 23.0358 30.2306 23.1161 30.2308 23.1808C30.231 23.2469 30.2776 23.2736 30.334 23.241L32.8369 21.796C32.8932 21.7635 32.9396 21.6831 32.9394 21.617C32.9392 21.5523 32.8925 21.5257 32.8362 21.5582L30.3333 23.0033Z" fill="#384E85"/>
<path d="M30.3323 22.4516C30.2759 22.4841 30.2296 22.5644 30.2297 22.6305C30.2299 22.6953 30.2766 22.7219 30.3329 22.6894L32.8358 21.2443C32.8921 21.2118 32.9385 21.1315 32.9383 21.0667C32.9381 21.0006 32.8915 20.974 32.8351 21.0065L30.3323 22.4516Z" fill="#384E85"/>
<path d="M30.3306 21.9016C30.2743 21.9341 30.2279 22.013 30.2281 22.0792C30.2283 22.1439 30.275 22.1705 30.3313 22.138L32.8342 20.6929C32.8905 20.6604 32.9369 20.5801 32.9367 20.5153C32.9365 20.4492 32.8898 20.424 32.8335 20.4565L30.3306 21.9016Z" fill="#384E85"/>
<path d="M30.3289 21.3498C30.2726 21.3823 30.2262 21.4613 30.2264 21.5274C30.2266 21.5921 30.2732 21.6187 30.3296 21.5862L32.8325 20.1412C32.8888 20.1086 32.9352 20.0283 32.935 19.9636C32.9348 19.8974 32.8881 19.8722 32.8318 19.9048L30.3289 21.3498Z" fill="#384E85"/>
<path d="M30.3257 20.2469C30.2694 20.2794 30.223 20.3583 30.2232 20.4245C30.2234 20.4892 30.2701 20.5158 30.3264 20.4833L32.8293 19.0382C32.8856 19.0057 32.932 18.9254 32.9318 18.8607C32.9316 18.7945 32.8849 18.7693 32.8286 18.8019L30.3257 20.2469Z" fill="#384E85"/>
<path d="M30.3273 20.7983C30.271 20.8308 30.2246 20.9097 30.2248 20.9759C30.225 21.0406 30.2717 21.0672 30.328 21.0347L32.8309 19.5896C32.8872 19.5571 32.9336 19.4768 32.9334 19.4121C32.9332 19.3459 32.8866 19.3207 32.8302 19.3533L30.3273 20.7983Z" fill="#384E85"/>
<path d="M30.3333 17.9827C30.277 18.0153 30.2306 18.0956 30.2308 18.1603C30.231 18.2264 30.2776 18.253 30.334 18.2205L32.8369 16.7755C32.8932 16.743 32.9396 16.6626 32.9394 16.5965C32.9392 16.5318 32.8925 16.5052 32.8362 16.5377L30.3333 17.9827Z" fill="#384E85"/>
<path d="M30.3323 17.4312C30.2759 17.4637 30.2296 17.544 30.2297 17.6101C30.2299 17.6749 30.2766 17.7015 30.3329 17.669L32.8358 16.2239C32.8921 16.1914 32.9385 16.1111 32.9383 16.0464C32.9381 15.9802 32.8915 15.9536 32.8351 15.9861L30.3323 17.4312Z" fill="#384E85"/>
<path d="M30.3306 16.8811C30.2743 16.9136 30.2279 16.9925 30.2281 17.0586C30.2283 17.1234 30.275 17.15 30.3313 17.1174L32.8342 15.6724C32.8905 15.6399 32.9369 15.5595 32.9367 15.4948C32.9365 15.4287 32.8898 15.4035 32.8335 15.436L30.3306 16.8811Z" fill="#384E85"/>
<path d="M30.3289 16.3294C30.2726 16.362 30.2262 16.4409 30.2264 16.507C30.2266 16.5717 30.2732 16.5983 30.3296 16.5658L32.8325 15.1208C32.8888 15.0882 32.9352 15.0079 32.935 14.9432C32.9348 14.8771 32.8881 14.8519 32.8318 14.8844L30.3289 16.3294Z" fill="#384E85"/>
<path d="M30.3257 15.2264C30.2694 15.2589 30.223 15.3378 30.2232 15.404C30.2234 15.4687 30.2701 15.4953 30.3264 15.4628L32.8293 14.0177C32.8856 13.9852 32.932 13.9049 32.9318 13.8402C32.9316 13.774 32.8849 13.7488 32.8286 13.7814L30.3257 15.2264Z" fill="#384E85"/>
<path d="M30.3273 15.7779C30.271 15.8104 30.2246 15.8894 30.2248 15.9555C30.225 16.0202 30.2717 16.0468 30.328 16.0143L32.8309 14.5692C32.8872 14.5367 32.9336 14.4564 32.9334 14.3917C32.9332 14.3256 32.8866 14.3003 32.8302 14.3329L30.3273 15.7779Z" fill="#384E85"/>
<path d="M16.5445 20.0136L18.0574 19.1344L18.0377 58.2945L16.5248 59.1737L16.5445 20.0136Z" fill="#1B2A4F"/>
<path d="M0.916138 10.9908L2.42903 10.1116L18.0571 19.1345L16.5442 20.0137L0.916138 10.9908Z" fill="#1B2A4F"/>
<path d="M0.920885 10.995L0.898682 50.1531L16.5219 59.1718L16.5441 20.0136L0.920885 10.995ZM14.7162 54.3536L2.5145 47.3096L2.52518 12.9719L14.7377 20.016L14.7162 54.3536Z" fill="#2E4277"/>
<path opacity="0.3" d="M2.52991 12.9696L2.51309 48.7908L14.7144 55.8357L14.7321 20.0136L2.52991 12.9696Z" fill="#4466FB"/>
<path opacity="0.3" d="M5.38779 50.4505L14.7194 45.2421L14.72 44.0234L4.14056 49.7304L5.38779 50.4505Z" fill="#4466FB"/>
<path opacity="0.3" d="M2.51309 48.7908L2.75419 48.9299L14.7205 42.669L14.7221 39.5864L2.51448 45.9438L2.51309 48.7908Z" fill="#4466FB"/>
<path opacity="0.3" d="M14.7265 31.3031L2.51871 36.1806L2.51813 37.3992L14.7258 32.5218L14.7265 31.3031Z" fill="#4466FB"/>
<path opacity="0.3" d="M14.7284 26.8662L2.52053 31.7437L2.51898 34.8262L14.7268 29.9488L14.7284 26.8662Z" fill="#4466FB"/>
<path opacity="0.3" d="M13.2676 19.1682L2.52454 23.4604L2.52396 24.679L14.5149 19.8882L13.2676 19.1682Z" fill="#4466FB"/>
<path opacity="0.3" d="M8.7255 16.5466L2.52605 19.0235L2.5246 22.1061L11.8806 18.368L8.7255 16.5466Z" fill="#4466FB"/>
<path d="M16.1719 39.347L15.4857 39.7414C15.4368 39.7707 15.3944 39.7724 15.3619 39.7544L14.9626 39.523L14.9642 39.8441C14.9658 40.007 15.0229 40.1228 15.1174 40.1782L14.5421 39.8441C14.4492 39.7887 14.3905 39.6746 14.3905 39.5099L14.3856 36.7934C14.384 36.4625 14.617 36.0599 14.9039 35.8953L15.59 35.4993L16.1637 35.8317L15.4792 36.2278C15.1907 36.394 14.9593 36.7966 14.9593 37.1275L14.9625 39.3796L15.5965 39.0129L16.1719 39.347Z" fill="#B7C5FD"/>
<path d="M16.1641 35.8325L16.1653 36.2307L15.4795 36.6266C15.3838 36.6819 15.307 36.816 15.3073 36.926L15.3123 39.6434C15.3126 39.7534 15.3898 39.7974 15.4856 39.7421L16.1713 39.3462L16.1725 39.7456L15.4867 40.1415C15.1995 40.3073 14.9657 40.1729 14.9647 39.844L14.9598 37.1267C14.9589 36.7967 15.1912 36.3943 15.4784 36.2285L16.1641 35.8325Z" fill="#798FFE"/>
<path d="M54.0605 38.6363L70.0942 30.5759L70.0745 69.7364L54.0408 79.0542L54.0605 38.6363Z" fill="#1B2A4F"/>
<path d="M38.4319 30.8706L54.4656 21.5529L70.0939 30.5758L54.0601 39.8936L38.4319 30.8706Z" fill="#384E85"/>
<path d="M54.0606 39.8936L54.0408 79.054L38.4126 70.0311L38.4323 30.8706L54.0606 39.8936Z" fill="#2E4277"/>
<path d="M40.3199 33.0518L39.3762 32.5071L39.3578 69.4854L53.0967 77.4179L53.0976 76.2379L40.3024 68.8501L40.3199 33.0518Z" fill="#384E85"/>
<path d="M40.3197 33.0519L40.3022 68.8502L53.0974 76.2379L53.1159 40.4388L40.3197 33.0519Z" fill="#1B2A4F"/>
<path d="M52.1496 41.7769L52.1363 46.0201L41.5957 39.9344L41.609 35.6913L52.1496 41.7769Z" fill="#2E4277"/>
<path d="M44.1558 38.4108L44.5367 38.1895L44.5227 40.9191L44.1419 41.1404L44.1558 38.4108Z" fill="#3955D1"/>
<path d="M43.488 38.0251L43.8689 37.8038L44.5366 38.1894L44.1558 38.4107L43.488 38.0251Z" fill="#6BB5FB"/>
<path d="M44.1557 38.4107L44.1418 41.1403L43.474 40.7548L43.488 38.0251L44.1557 38.4107Z" fill="#4466FB"/>
<path d="M45.518 39.1974L45.8988 38.9761L45.8849 41.7057L45.504 41.927L45.518 39.1974Z" fill="#3955D1"/>
<path d="M44.8502 38.8118L45.231 38.5905L45.8988 38.976L45.5179 39.1973L44.8502 38.8118Z" fill="#6BB5FB"/>
<path d="M45.5178 39.1973L45.5039 41.9269L44.8361 41.5414L44.8501 38.8118L45.5178 39.1973Z" fill="#4466FB"/>
<path d="M46.8807 39.984L47.2616 39.7627L47.2476 42.4923L46.8668 42.7136L46.8807 39.984Z" fill="#3955D1"/>
<path d="M46.2129 39.5984L46.5937 39.3771L47.2615 39.7626L46.8807 39.9839L46.2129 39.5984Z" fill="#6BB5FB"/>
<path d="M46.8806 39.9839L46.8667 42.7135L46.1989 42.328L46.2128 39.5984L46.8806 39.9839Z" fill="#4466FB"/>
<path d="M48.2428 40.7705L48.6236 40.5492L48.6097 43.2788L48.2288 43.5001L48.2428 40.7705Z" fill="#3955D1"/>
<path d="M47.575 40.3849L47.9558 40.1636L48.6236 40.5491L48.2427 40.7704L47.575 40.3849Z" fill="#6BB5FB"/>
<path d="M48.2427 40.7704L48.2287 43.5L47.5609 43.1145L47.5749 40.3849L48.2427 40.7704Z" fill="#4466FB"/>
<path d="M49.6054 41.5571L49.9863 41.3358L49.9723 44.0654L49.5915 44.2867L49.6054 41.5571Z" fill="#3955D1"/>
<path d="M48.9377 41.1715L49.3185 40.9502L49.9862 41.3357L49.6054 41.557L48.9377 41.1715Z" fill="#6BB5FB"/>
<path d="M49.6053 41.557L49.5914 44.2867L48.9236 43.9011L48.9376 41.1715L49.6053 41.557Z" fill="#4466FB"/>
<path d="M50.9676 42.3438L51.3484 42.1224L51.3345 44.8521L50.9536 45.0734L50.9676 42.3438Z" fill="#3955D1"/>
<path d="M50.2998 41.9581L50.6806 41.7368L51.3484 42.1223L50.9676 42.3437L50.2998 41.9581Z" fill="#6BB5FB"/>
<path d="M50.9675 42.3437L50.9535 45.0733L50.2858 44.6877L50.2997 41.9581L50.9675 42.3437Z" fill="#4466FB"/>
<path d="M42.7932 37.6242L43.174 37.4028L43.1601 40.1324L42.7792 40.3538L42.7932 37.6242Z" fill="#3955D1"/>
<path d="M42.1253 37.2385L42.5062 37.0172L43.174 37.4027L42.7931 37.6241L42.1253 37.2385Z" fill="#6BB5FB"/>
<path d="M42.7931 37.6241L42.7791 40.3537L42.1113 39.9681L42.1253 37.2385L42.7931 37.6241Z" fill="#4466FB"/>
<path d="M52.1496 47.4217L52.1363 51.6648L41.5957 45.5792L41.609 41.3361L52.1496 47.4217Z" fill="#2E4277"/>
<path d="M44.1558 44.0554L44.5367 43.8341L44.5227 46.5637L44.1419 46.7851L44.1558 44.0554Z" fill="#3955D1"/>
<path d="M43.488 43.6698L43.8689 43.4485L44.5366 43.834L44.1558 44.0554L43.488 43.6698Z" fill="#6BB5FB"/>
<path d="M44.1557 44.0553L44.1418 46.785L43.474 46.3994L43.488 43.6698L44.1557 44.0553Z" fill="#4466FB"/>
<path d="M45.518 44.8422L45.8988 44.6208L45.8849 47.3505L45.504 47.5718L45.518 44.8422Z" fill="#3955D1"/>
<path d="M44.8502 44.4565L45.231 44.2352L45.8988 44.6208L45.5179 44.8421L44.8502 44.4565Z" fill="#6BB5FB"/>
<path d="M45.5178 44.8421L45.5039 47.5717L44.8361 47.1862L44.8501 44.4565L45.5178 44.8421Z" fill="#4466FB"/>
<path d="M46.8807 45.6288L47.2616 45.4075L47.2476 48.1371L46.8668 48.3584L46.8807 45.6288Z" fill="#3955D1"/>
<path d="M46.2129 45.2432L46.5937 45.0219L47.2615 45.4074L46.8807 45.6287L46.2129 45.2432Z" fill="#6BB5FB"/>
<path d="M46.8806 45.6287L46.8667 48.3583L46.1989 47.9728L46.2128 45.2432L46.8806 45.6287Z" fill="#4466FB"/>
<path d="M48.2428 46.4153L48.6236 46.194L48.6097 48.9236L48.2288 49.1449L48.2428 46.4153Z" fill="#3955D1"/>
<path d="M47.575 46.0297L47.9558 45.8083L48.6236 46.1939L48.2427 46.4152L47.575 46.0297Z" fill="#6BB5FB"/>
<path d="M48.2427 46.4152L48.2287 49.1448L47.5609 48.7593L47.5749 46.0297L48.2427 46.4152Z" fill="#4466FB"/>
<path d="M49.6054 47.2019L49.9863 46.9806L49.9723 49.7102L49.5915 49.9315L49.6054 47.2019Z" fill="#3955D1"/>
<path d="M48.9377 46.8163L49.3185 46.595L49.9862 46.9805L49.6054 47.2018L48.9377 46.8163Z" fill="#6BB5FB"/>
<path d="M49.6053 47.2018L49.5914 49.9314L48.9236 49.5459L48.9376 46.8163L49.6053 47.2018Z" fill="#4466FB"/>
<path d="M50.9676 47.9885L51.3484 47.7672L51.3345 50.4968L50.9536 50.7181L50.9676 47.9885Z" fill="#3955D1"/>
<path d="M50.2998 47.6029L50.6806 47.3816L51.3484 47.7671L50.9676 47.9884L50.2998 47.6029Z" fill="#6BB5FB"/>
<path d="M50.9675 47.9884L50.9535 50.7181L50.2858 50.3325L50.2997 47.6029L50.9675 47.9884Z" fill="#4466FB"/>
<path d="M42.7932 43.2689L43.174 43.0476L43.1601 45.7772L42.7792 45.9986L42.7932 43.2689Z" fill="#3955D1"/>
<path d="M42.1253 42.8833L42.5062 42.662L43.174 43.0475L42.7931 43.2688L42.1253 42.8833Z" fill="#6BB5FB"/>
<path d="M42.7931 43.2688L42.7791 45.9985L42.1113 45.6129L42.1253 42.8833L42.7931 43.2688Z" fill="#4466FB"/>
<path d="M52.1496 53.0661L52.1363 57.3092L41.5957 51.2236L41.609 46.9805L52.1496 53.0661Z" fill="#2E4277"/>
<path d="M44.1558 49.6998L44.5367 49.4785L44.5227 52.2081L44.1419 52.4295L44.1558 49.6998Z" fill="#3955D1"/>
<path d="M43.488 49.3142L43.8689 49.0929L44.5366 49.4784L44.1558 49.6998L43.488 49.3142Z" fill="#6BB5FB"/>
<path d="M44.1557 49.6997L44.1418 52.4294L43.474 52.0438L43.488 49.3142L44.1557 49.6997Z" fill="#4466FB"/>
<path d="M45.518 50.4866L45.8988 50.2653L45.8849 52.9949L45.504 53.2162L45.518 50.4866Z" fill="#3955D1"/>
<path d="M44.8502 50.101L45.231 49.8796L45.8988 50.2652L45.5179 50.4865L44.8502 50.101Z" fill="#6BB5FB"/>
<path d="M45.5178 50.4865L45.5039 53.2161L44.8361 52.8306L44.8501 50.101L45.5178 50.4865Z" fill="#4466FB"/>
<path d="M46.8807 51.2732L47.2616 51.0519L47.2476 53.7815L46.8668 54.0028L46.8807 51.2732Z" fill="#3955D1"/>
<path d="M46.2129 50.8876L46.5937 50.6663L47.2615 51.0518L46.8807 51.2731L46.2129 50.8876Z" fill="#6BB5FB"/>
<path d="M46.8806 51.2731L46.8667 54.0027L46.1989 53.6172L46.2128 50.8876L46.8806 51.2731Z" fill="#4466FB"/>
<path d="M48.2428 52.0597L48.6236 51.8384L48.6097 54.568L48.2288 54.7893L48.2428 52.0597Z" fill="#3955D1"/>
<path d="M47.575 51.6741L47.9558 51.4528L48.6236 51.8383L48.2427 52.0596L47.575 51.6741Z" fill="#6BB5FB"/>
<path d="M48.2427 52.0596L48.2287 54.7892L47.5609 54.4037L47.5749 51.6741L48.2427 52.0596Z" fill="#4466FB"/>
<path d="M49.6054 52.8463L49.9863 52.625L49.9723 55.3546L49.5915 55.5759L49.6054 52.8463Z" fill="#3955D1"/>
<path d="M48.9377 52.4607L49.3185 52.2394L49.9862 52.6249L49.6054 52.8462L48.9377 52.4607Z" fill="#6BB5FB"/>
<path d="M49.6053 52.8462L49.5914 55.5758L48.9236 55.1903L48.9376 52.4607L49.6053 52.8462Z" fill="#4466FB"/>
<path d="M50.9676 53.6329L51.3484 53.4116L51.3345 56.1412L50.9536 56.3626L50.9676 53.6329Z" fill="#3955D1"/>
<path d="M50.2998 53.2473L50.6806 53.026L51.3484 53.4115L50.9676 53.6328L50.2998 53.2473Z" fill="#6BB5FB"/>
<path d="M50.9675 53.6328L50.9535 56.3625L50.2858 55.9769L50.2997 53.2473L50.9675 53.6328Z" fill="#4466FB"/>
<path d="M42.7932 48.9133L43.174 48.692L43.1601 51.4216L42.7792 51.643L42.7932 48.9133Z" fill="#3955D1"/>
<path d="M42.1253 48.5277L42.5062 48.3064L43.174 48.6919L42.7931 48.9132L42.1253 48.5277Z" fill="#6BB5FB"/>
<path d="M42.7931 48.9132L42.7791 51.6429L42.1113 51.2573L42.1253 48.5277L42.7931 48.9132Z" fill="#4466FB"/>
<path d="M52.1496 58.7107L52.1363 62.9539L41.5957 56.8683L41.609 52.6251L52.1496 58.7107Z" fill="#2E4277"/>
<path d="M44.1558 55.3446L44.5367 55.1233L44.5227 57.8529L44.1419 58.0742L44.1558 55.3446Z" fill="#3955D1"/>
<path d="M43.488 54.959L43.8689 54.7377L44.5366 55.1232L44.1558 55.3445L43.488 54.959Z" fill="#6BB5FB"/>
<path d="M44.1557 55.3445L44.1418 58.0741L43.474 57.6886L43.488 54.959L44.1557 55.3445Z" fill="#4466FB"/>
<path d="M45.518 56.1312L45.8988 55.9099L45.8849 58.6395L45.504 58.8609L45.518 56.1312Z" fill="#3955D1"/>
<path d="M44.8502 55.7456L45.231 55.5243L45.8988 55.9098L45.5179 56.1312L44.8502 55.7456Z" fill="#6BB5FB"/>
<path d="M45.5178 56.1311L45.5039 58.8608L44.8361 58.4752L44.8501 55.7456L45.5178 56.1311Z" fill="#4466FB"/>
<path d="M46.8807 56.9179L47.2616 56.6965L47.2476 59.4262L46.8668 59.6475L46.8807 56.9179Z" fill="#3955D1"/>
<path d="M46.2129 56.5322L46.5937 56.3109L47.2615 56.6964L46.8807 56.9178L46.2129 56.5322Z" fill="#6BB5FB"/>
<path d="M46.8806 56.9178L46.8667 59.6474L46.1989 59.2618L46.2128 56.5322L46.8806 56.9178Z" fill="#4466FB"/>
<path d="M48.2428 57.7043L48.6236 57.483L48.6097 60.2127L48.2288 60.434L48.2428 57.7043Z" fill="#3955D1"/>
<path d="M47.575 57.3187L47.9558 57.0974L48.6236 57.4829L48.2427 57.7043L47.575 57.3187Z" fill="#6BB5FB"/>
<path d="M48.2427 57.7043L48.2287 60.4339L47.5609 60.0483L47.5749 57.3187L48.2427 57.7043Z" fill="#4466FB"/>
<path d="M49.6054 58.491L49.9863 58.2697L49.9723 60.9993L49.5915 61.2206L49.6054 58.491Z" fill="#3955D1"/>
<path d="M48.9377 58.1053L49.3185 57.884L49.9862 58.2696L49.6054 58.4909L48.9377 58.1053Z" fill="#6BB5FB"/>
<path d="M49.6053 58.4909L49.5914 61.2205L48.9236 60.835L48.9376 58.1053L49.6053 58.4909Z" fill="#4466FB"/>
<path d="M50.9676 59.2776L51.3484 59.0563L51.3345 61.7859L50.9536 62.0072L50.9676 59.2776Z" fill="#3955D1"/>
<path d="M50.2998 58.892L50.6806 58.6707L51.3484 59.0562L50.9676 59.2775L50.2998 58.892Z" fill="#6BB5FB"/>
<path d="M50.9675 59.2775L50.9535 62.0071L50.2858 61.6216L50.2997 58.892L50.9675 59.2775Z" fill="#4466FB"/>
<path d="M42.7932 54.558L43.174 54.3367L43.1601 57.0663L42.7792 57.2876L42.7932 54.558Z" fill="#3955D1"/>
<path d="M42.1253 54.1724L42.5062 53.951L43.174 54.3366L42.7931 54.5579L42.1253 54.1724Z" fill="#6BB5FB"/>
<path d="M42.7931 54.5579L42.7791 57.2875L42.1113 56.902L42.1253 54.1724L42.7931 54.5579Z" fill="#4466FB"/>
<path d="M52.1496 64.3553L52.1363 68.5984L41.5957 62.5128L41.609 58.2697L52.1496 64.3553Z" fill="#2E4277"/>
<path d="M44.1558 60.9892L44.5367 60.7678L44.5227 63.4974L44.1419 63.7188L44.1558 60.9892Z" fill="#3955D1"/>
<path d="M43.488 60.6035L43.8689 60.3822L44.5366 60.7677L44.1558 60.9891L43.488 60.6035Z" fill="#6BB5FB"/>
<path d="M44.1557 60.9891L44.1418 63.7187L43.474 63.3331L43.488 60.6035L44.1557 60.9891Z" fill="#4466FB"/>
<path d="M45.518 61.7758L45.8988 61.5544L45.8849 64.2841L45.504 64.5054L45.518 61.7758Z" fill="#3955D1"/>
<path d="M44.8502 61.3901L45.231 61.1688L45.8988 61.5544L45.5179 61.7757L44.8502 61.3901Z" fill="#6BB5FB"/>
<path d="M45.5178 61.7757L45.5039 64.5053L44.8361 64.1198L44.8501 61.3901L45.5178 61.7757Z" fill="#4466FB"/>
<path d="M46.8807 62.5624L47.2616 62.3411L47.2476 65.0707L46.8668 65.292L46.8807 62.5624Z" fill="#3955D1"/>
<path d="M46.2129 62.1768L46.5937 61.9554L47.2615 62.341L46.8807 62.5623L46.2129 62.1768Z" fill="#6BB5FB"/>
<path d="M46.8806 62.5623L46.8667 65.2919L46.1989 64.9064L46.2128 62.1768L46.8806 62.5623Z" fill="#4466FB"/>
<path d="M48.2428 63.3489L48.6236 63.1276L48.6097 65.8572L48.2288 66.0785L48.2428 63.3489Z" fill="#3955D1"/>
<path d="M47.575 62.9633L47.9558 62.7419L48.6236 63.1275L48.2427 63.3488L47.575 62.9633Z" fill="#6BB5FB"/>
<path d="M48.2427 63.3488L48.2287 66.0784L47.5609 65.6929L47.5749 62.9633L48.2427 63.3488Z" fill="#4466FB"/>
<path d="M49.6054 64.1355L49.9863 63.9142L49.9723 66.6438L49.5915 66.8651L49.6054 64.1355Z" fill="#3955D1"/>
<path d="M48.9377 63.7499L49.3185 63.5286L49.9862 63.9141L49.6054 64.1354L48.9377 63.7499Z" fill="#6BB5FB"/>
<path d="M49.6053 64.1354L49.5914 66.865L48.9236 66.4795L48.9376 63.7499L49.6053 64.1354Z" fill="#4466FB"/>
<path d="M50.9676 64.9221L51.3484 64.7008L51.3345 67.4304L50.9536 67.6517L50.9676 64.9221Z" fill="#3955D1"/>
<path d="M50.2998 64.5365L50.6806 64.3152L51.3484 64.7007L50.9676 64.922L50.2998 64.5365Z" fill="#6BB5FB"/>
<path d="M50.9675 64.922L50.9535 67.6516L50.2858 67.2661L50.2997 64.5365L50.9675 64.922Z" fill="#4466FB"/>
<path d="M42.7932 60.2025L43.174 59.9812L43.1601 62.7108L42.7792 62.9321L42.7932 60.2025Z" fill="#3955D1"/>
<path d="M42.1253 59.8169L42.5062 59.5956L43.174 59.9811L42.7931 60.2024L42.1253 59.8169Z" fill="#6BB5FB"/>
<path d="M42.7931 60.2024L42.7791 62.932L42.1113 62.5465L42.1253 59.8169L42.7931 60.2024Z" fill="#4466FB"/>
<path d="M52.1496 69.9998L52.1363 74.2429L41.5957 68.1573L41.609 63.9142L52.1496 69.9998Z" fill="#2E4277"/>
<path d="M44.1558 66.6336L44.5367 66.4122L44.5227 69.1418L44.1419 69.3632L44.1558 66.6336Z" fill="#3955D1"/>
<path d="M43.488 66.2479L43.8689 66.0266L44.5366 66.4121L44.1558 66.6335L43.488 66.2479Z" fill="#6BB5FB"/>
<path d="M44.1557 66.6335L44.1418 69.3631L43.474 68.9775L43.488 66.2479L44.1557 66.6335Z" fill="#4466FB"/>
<path d="M45.518 67.4203L45.8988 67.199L45.8849 69.9286L45.504 70.1499L45.518 67.4203Z" fill="#3955D1"/>
<path d="M44.8502 67.0347L45.231 66.8134L45.8988 67.1989L45.5179 67.4202L44.8502 67.0347Z" fill="#6BB5FB"/>
<path d="M45.5178 67.4202L45.5039 70.1498L44.8361 69.7643L44.8501 67.0347L45.5178 67.4202Z" fill="#4466FB"/>
<path d="M46.8807 68.2069L47.2616 67.9856L47.2476 70.7152L46.8668 70.9365L46.8807 68.2069Z" fill="#3955D1"/>
<path d="M46.2129 67.8213L46.5937 67.6L47.2615 67.9855L46.8807 68.2068L46.2129 67.8213Z" fill="#6BB5FB"/>
<path d="M46.8806 68.2068L46.8667 70.9364L46.1989 70.5509L46.2128 67.8213L46.8806 68.2068Z" fill="#4466FB"/>
<path d="M48.2428 68.9934L48.6236 68.7721L48.6097 71.5017L48.2288 71.723L48.2428 68.9934Z" fill="#3955D1"/>
<path d="M47.575 68.6078L47.9558 68.3865L48.6236 68.772L48.2427 68.9933L47.575 68.6078Z" fill="#6BB5FB"/>
<path d="M48.2427 68.9933L48.2287 71.7229L47.5609 71.3374L47.5749 68.6078L48.2427 68.9933Z" fill="#4466FB"/>
<path d="M49.6054 69.78L49.9863 69.5587L49.9723 72.2883L49.5915 72.5097L49.6054 69.78Z" fill="#3955D1"/>
<path d="M48.9377 69.3944L49.3185 69.1731L49.9862 69.5586L49.6054 69.78L48.9377 69.3944Z" fill="#6BB5FB"/>
<path d="M49.6053 69.7799L49.5914 72.5095L48.9236 72.124L48.9376 69.3944L49.6053 69.7799Z" fill="#4466FB"/>
<path d="M50.9676 70.5667L51.3484 70.3453L51.3345 73.075L50.9536 73.2963L50.9676 70.5667Z" fill="#3955D1"/>
<path d="M50.2998 70.181L50.6806 69.9597L51.3484 70.3453L50.9676 70.5666L50.2998 70.181Z" fill="#6BB5FB"/>
<path d="M50.9675 70.5666L50.9535 73.2962L50.2858 72.9106L50.2997 70.181L50.9675 70.5666Z" fill="#4466FB"/>
<path d="M42.7932 65.847L43.174 65.6257L43.1601 68.3554L42.7792 68.5767L42.7932 65.847Z" fill="#3955D1"/>
<path d="M42.1253 65.4614L42.5062 65.2401L43.174 65.6256L42.7931 65.847L42.1253 65.4614Z" fill="#6BB5FB"/>
<path d="M42.7931 65.847L42.7791 68.5766L42.1113 68.191L42.1253 65.4614L42.7931 65.847Z" fill="#4466FB"/>
<path d="M66.3367 68.8647C66.2803 68.8972 66.2339 68.9775 66.2341 69.0423C66.2343 69.1084 66.281 69.135 66.3373 69.1025L68.8402 67.6574C68.8966 67.6249 68.9429 67.5446 68.9428 67.4785C68.9426 67.4137 68.8959 67.3871 68.8396 67.4197L66.3367 68.8647Z" fill="#384E85"/>
<path d="M66.3357 68.3132C66.2794 68.3457 66.233 68.426 66.2332 68.4921C66.2334 68.5569 66.28 68.5835 66.3364 68.551L68.8393 67.1059C68.8956 67.0734 68.942 66.993 68.9418 66.9283C68.9416 66.8622 68.895 66.8356 68.8386 66.8681L66.3357 68.3132Z" fill="#384E85"/>
<path d="M66.334 67.7629C66.2777 67.7955 66.2313 67.8744 66.2315 67.9405C66.2317 68.0052 66.2784 68.0318 66.3347 67.9993L68.8376 66.5543C68.894 66.5217 68.9403 66.4414 68.9401 66.3767C68.94 66.3105 68.8933 66.2853 68.8369 66.3179L66.334 67.7629Z" fill="#384E85"/>
<path d="M66.3324 67.2114C66.2761 67.2439 66.2297 67.3228 66.2299 67.389C66.2301 67.4537 66.2768 67.4803 66.3331 67.4478L68.836 66.0027C68.8923 65.9702 68.9387 65.8899 68.9385 65.8251C68.9384 65.759 68.8917 65.7338 68.8353 65.7663L66.3324 67.2114Z" fill="#384E85"/>
<path d="M66.3291 66.1083C66.2728 66.1408 66.2264 66.2197 66.2266 66.2858C66.2268 66.3506 66.2735 66.3772 66.3298 66.3446L68.8327 64.8996C68.8891 64.8671 68.9354 64.7867 68.9352 64.722C68.9351 64.6559 68.8884 64.6307 68.8321 64.6632L66.3291 66.1083Z" fill="#384E85"/>
<path d="M66.3308 66.6598C66.2744 66.6923 66.2281 66.7712 66.2282 66.8373C66.2284 66.9021 66.2751 66.9287 66.3314 66.8961L68.8343 65.4511C68.8907 65.4186 68.937 65.3382 68.9369 65.2735C68.9367 65.2074 68.89 65.1822 68.8337 65.2147L66.3308 66.6598Z" fill="#384E85"/>
<path d="M66.3367 63.8442C66.2803 63.8767 66.2339 63.9571 66.2341 64.0218C66.2343 64.0879 66.281 64.1145 66.3373 64.082L68.8402 62.6369C68.8966 62.6044 68.9429 62.5241 68.9428 62.4579C68.9426 62.3932 68.8959 62.3666 68.8396 62.3991L66.3367 63.8442Z" fill="#384E85"/>
<path d="M66.3357 63.2927C66.2794 63.3252 66.233 63.4055 66.2332 63.4716C66.2334 63.5364 66.28 63.563 66.3364 63.5304L68.8393 62.0854C68.8956 62.0529 68.942 61.9725 68.9418 61.9078C68.9416 61.8417 68.895 61.8151 68.8386 61.8476L66.3357 63.2927Z" fill="#384E85"/>
<path d="M66.334 62.7424C66.2777 62.7749 66.2313 62.8538 66.2315 62.92C66.2317 62.9847 66.2784 63.0113 66.3347 62.9788L68.8376 61.5337C68.894 61.5012 68.9403 61.4209 68.9401 61.3562C68.94 61.29 68.8933 61.2648 68.8369 61.2973L66.334 62.7424Z" fill="#384E85"/>
<path d="M66.3324 62.1909C66.2761 62.2234 66.2297 62.3023 66.2299 62.3685C66.2301 62.4332 66.2768 62.4598 66.3331 62.4273L68.836 60.9822C68.8923 60.9497 68.9387 60.8694 68.9385 60.8046C68.9384 60.7385 68.8917 60.7133 68.8353 60.7458L66.3324 62.1909Z" fill="#384E85"/>
<path d="M66.3291 61.0877C66.2728 61.1203 66.2264 61.1992 66.2266 61.2653C66.2268 61.33 66.2735 61.3566 66.3298 61.3241L68.8327 59.8791C68.8891 59.8465 68.9354 59.7662 68.9352 59.7015C68.9351 59.6354 68.8884 59.6102 68.8321 59.6427L66.3291 61.0877Z" fill="#384E85"/>
<path d="M66.3308 61.6392C66.2744 61.6718 66.2281 61.7507 66.2282 61.8168C66.2284 61.8815 66.2751 61.9081 66.3314 61.8756L68.8343 60.4306C68.8907 60.3981 68.937 60.3177 68.9369 60.253C68.9367 60.1869 68.89 60.1617 68.8337 60.1942L66.3308 61.6392Z" fill="#384E85"/>
<path d="M66.3367 58.8237C66.2803 58.8562 66.2339 58.9365 66.2341 59.0013C66.2343 59.0674 66.281 59.094 66.3373 59.0615L68.8402 57.6164C68.8966 57.5839 68.9429 57.5036 68.9428 57.4374C68.9426 57.3727 68.8959 57.3461 68.8396 57.3786L66.3367 58.8237Z" fill="#384E85"/>
<path d="M66.3357 58.2721C66.2794 58.3047 66.233 58.385 66.2332 58.4511C66.2334 58.5158 66.28 58.5425 66.3364 58.5099L68.8393 57.0649C68.8956 57.0324 68.942 56.952 68.9418 56.8873C68.9416 56.8212 68.895 56.7946 68.8386 56.8271L66.3357 58.2721Z" fill="#384E85"/>
<path d="M66.334 57.7219C66.2777 57.7544 66.2313 57.8334 66.2315 57.8995C66.2317 57.9642 66.2784 57.9908 66.3347 57.9583L68.8376 56.5132C68.894 56.4807 68.9403 56.4004 68.9401 56.3357C68.94 56.2695 68.8933 56.2443 68.8369 56.2768L66.334 57.7219Z" fill="#384E85"/>
<path d="M66.3324 57.1704C66.2761 57.2029 66.2297 57.2818 66.2299 57.348C66.2301 57.4127 66.2768 57.4393 66.3331 57.4068L68.836 55.9617C68.8923 55.9292 68.9387 55.8488 68.9385 55.7841C68.9384 55.718 68.8917 55.6928 68.8353 55.7253L66.3324 57.1704Z" fill="#384E85"/>
<path d="M66.3291 56.0672C66.2728 56.0998 66.2264 56.1787 66.2266 56.2448C66.2268 56.3095 66.2735 56.3361 66.3298 56.3036L68.8327 54.8586C68.8891 54.8261 68.9354 54.7457 68.9352 54.681C68.9351 54.6149 68.8884 54.5897 68.8321 54.6222L66.3291 56.0672Z" fill="#384E85"/>
<path d="M66.3308 56.6187C66.2744 56.6513 66.2281 56.7302 66.2282 56.7963C66.2284 56.861 66.2751 56.8877 66.3314 56.8551L68.8343 55.4101C68.8907 55.3775 68.937 55.2972 68.9369 55.2325C68.9367 55.1664 68.89 55.1412 68.8337 55.1737L66.3308 56.6187Z" fill="#384E85"/>
<path d="M66.3367 53.8033C66.2803 53.8358 66.2339 53.9162 66.2341 53.9809C66.2343 54.047 66.281 54.0736 66.3373 54.0411L68.8402 52.596C68.8966 52.5635 68.9429 52.4832 68.9428 52.4171C68.9426 52.3523 68.8959 52.3257 68.8396 52.3582L66.3367 53.8033Z" fill="#384E85"/>
<path d="M66.3357 53.2517C66.2794 53.2843 66.233 53.3646 66.2332 53.4307C66.2334 53.4954 66.28 53.5221 66.3364 53.4895L68.8393 52.0445C68.8956 52.012 68.942 51.9316 68.9418 51.8669C68.9416 51.8008 68.895 51.7742 68.8386 51.8067L66.3357 53.2517Z" fill="#384E85"/>
<path d="M66.334 52.7015C66.2777 52.734 66.2313 52.813 66.2315 52.8791C66.2317 52.9438 66.2784 52.9704 66.3347 52.9379L68.8376 51.4928C68.894 51.4603 68.9403 51.38 68.9401 51.3153C68.94 51.2491 68.8933 51.2239 68.8369 51.2565L66.334 52.7015Z" fill="#384E85"/>
<path d="M66.3324 52.15C66.2761 52.1825 66.2297 52.2614 66.2299 52.3276C66.2301 52.3923 66.2768 52.4189 66.3331 52.3864L68.836 50.9413C68.8923 50.9088 68.9387 50.8285 68.9385 50.7637C68.9384 50.6976 68.8917 50.6724 68.8353 50.7049L66.3324 52.15Z" fill="#384E85"/>
<path d="M66.3291 51.0468C66.2728 51.0794 66.2264 51.1583 66.2266 51.2244C66.2268 51.2891 66.2735 51.3157 66.3298 51.2832L68.8327 49.8382C68.8891 49.8056 68.9354 49.7253 68.9352 49.6606C68.9351 49.5945 68.8884 49.5693 68.8321 49.6018L66.3291 51.0468Z" fill="#384E85"/>
<path d="M66.3308 51.5984C66.2744 51.6309 66.2281 51.7098 66.2282 51.7759C66.2284 51.8407 66.2751 51.8673 66.3314 51.8347L68.8343 50.3897C68.8907 50.3572 68.937 50.2768 68.9369 50.2121C68.9367 50.146 68.89 50.1208 68.8337 50.1533L66.3308 51.5984Z" fill="#384E85"/>
<path d="M66.3367 48.7828C66.2803 48.8153 66.2339 48.8957 66.2341 48.9604C66.2343 49.0265 66.281 49.0531 66.3373 49.0206L68.8402 47.5755C68.8966 47.543 68.9429 47.4627 68.9428 47.3965C68.9426 47.3318 68.8959 47.3052 68.8396 47.3377L66.3367 48.7828Z" fill="#384E85"/>
<path d="M66.3357 48.2311C66.2794 48.2637 66.233 48.344 66.2332 48.4101C66.2334 48.4748 66.28 48.5014 66.3364 48.4689L68.8393 47.0239C68.8956 46.9914 68.942 46.911 68.9418 46.8463C68.9416 46.7802 68.895 46.7535 68.8386 46.7861L66.3357 48.2311Z" fill="#384E85"/>
<path d="M66.334 47.681C66.2777 47.7135 66.2313 47.7925 66.2315 47.8586C66.2317 47.9233 66.2784 47.9499 66.3347 47.9174L68.8376 46.4723C68.894 46.4398 68.9403 46.3595 68.9401 46.2948C68.94 46.2286 68.8933 46.2034 68.8369 46.2359L66.334 47.681Z" fill="#384E85"/>
<path d="M66.3324 47.1295C66.2761 47.162 66.2297 47.2409 66.2299 47.3071C66.2301 47.3718 66.2768 47.3984 66.3331 47.3659L68.836 45.9208C68.8923 45.8883 68.9387 45.808 68.9385 45.7432C68.9384 45.6771 68.8917 45.6519 68.8353 45.6844L66.3324 47.1295Z" fill="#384E85"/>
<path d="M66.3291 46.0263C66.2728 46.0588 66.2264 46.1378 66.2266 46.2039C66.2268 46.2686 66.2735 46.2952 66.3298 46.2627L68.8327 44.8177C68.8891 44.7851 68.9354 44.7048 68.9352 44.6401C68.9351 44.574 68.8884 44.5488 68.8321 44.5813L66.3291 46.0263Z" fill="#384E85"/>
<path d="M66.3308 46.5779C66.2744 46.6104 66.2281 46.6893 66.2282 46.7554C66.2284 46.8202 66.2751 46.8468 66.3314 46.8142L68.8343 45.3692C68.8907 45.3367 68.937 45.2563 68.9369 45.1916C68.9367 45.1255 68.89 45.1003 68.8337 45.1328L66.3308 46.5779Z" fill="#384E85"/>
<path d="M66.3367 43.7623C66.2803 43.7948 66.2339 43.8752 66.2341 43.9399C66.2343 44.006 66.281 44.0326 66.3373 44.0001L68.8402 42.555C68.8966 42.5225 68.9429 42.4422 68.9428 42.376C68.9426 42.3113 68.8959 42.2847 68.8396 42.3172L66.3367 43.7623Z" fill="#384E85"/>
<path d="M66.3357 43.2107C66.2794 43.2432 66.233 43.3236 66.2332 43.3897C66.2334 43.4544 66.28 43.481 66.3364 43.4485L68.8393 42.0035C68.8956 41.9709 68.942 41.8906 68.9418 41.8259C68.9416 41.7598 68.895 41.7332 68.8386 41.7657L66.3357 43.2107Z" fill="#384E85"/>
<path d="M66.334 42.6605C66.2777 42.693 66.2313 42.7719 66.2315 42.8381C66.2317 42.9028 66.2784 42.9294 66.3347 42.8969L68.8376 41.4518C68.894 41.4193 68.9403 41.339 68.9401 41.2743C68.94 41.2081 68.8933 41.1829 68.8369 41.2154L66.334 42.6605Z" fill="#384E85"/>
<path d="M66.3324 42.109C66.2761 42.1415 66.2297 42.2204 66.2299 42.2866C66.2301 42.3513 66.2768 42.3779 66.3331 42.3454L68.836 40.9003C68.8923 40.8678 68.9387 40.7875 68.9385 40.7227C68.9384 40.6566 68.8917 40.6314 68.8353 40.6639L66.3324 42.109Z" fill="#384E85"/>
<path d="M66.3291 41.0058C66.2728 41.0384 66.2264 41.1173 66.2266 41.1834C66.2268 41.2481 66.2735 41.2747 66.3298 41.2422L68.8327 39.7972C68.8891 39.7646 68.9354 39.6843 68.9352 39.6196C68.9351 39.5535 68.8884 39.5283 68.8321 39.5608L66.3291 41.0058Z" fill="#384E85"/>
<path d="M66.3308 41.5574C66.2744 41.5899 66.2281 41.6688 66.2282 41.7349C66.2284 41.7996 66.2751 41.8263 66.3314 41.7937L68.8343 40.3487C68.8907 40.3161 68.937 40.2358 68.9369 40.1711C68.9367 40.105 68.89 40.0798 68.8337 40.1123L66.3308 41.5574Z" fill="#384E85"/>
<path d="M66.3367 38.7418C66.2803 38.7743 66.2339 38.8547 66.2341 38.9194C66.2343 38.9855 66.281 39.0121 66.3373 38.9796L68.8402 37.5345C68.8966 37.502 68.9429 37.4217 68.9428 37.3555C68.9426 37.2908 68.8959 37.2642 68.8396 37.2967L66.3367 38.7418Z" fill="#384E85"/>
<path d="M66.3357 38.1902C66.2794 38.2227 66.233 38.3031 66.2332 38.3692C66.2334 38.4339 66.28 38.4606 66.3364 38.428L68.8393 36.983C68.8956 36.9504 68.942 36.8701 68.9418 36.8054C68.9416 36.7393 68.895 36.7127 68.8386 36.7452L66.3357 38.1902Z" fill="#384E85"/>
<path d="M66.3341 37.64C66.2777 37.6725 66.2314 37.7515 66.2315 37.8176C66.2317 37.8823 66.2784 37.9089 66.3347 37.8764L68.8377 36.4313C68.894 36.3988 68.9404 36.3185 68.9402 36.2537C68.94 36.1876 68.8933 36.1624 68.837 36.1949L66.3341 37.64Z" fill="#384E85"/>
<path d="M66.3324 37.0885C66.2761 37.121 66.2297 37.1999 66.2299 37.2661C66.2301 37.3308 66.2768 37.3574 66.3331 37.3249L68.836 35.8798C68.8923 35.8473 68.9387 35.7669 68.9385 35.7022C68.9384 35.6361 68.8917 35.6109 68.8353 35.6434L66.3324 37.0885Z" fill="#384E85"/>
<path d="M66.3291 35.9853C66.2728 36.0178 66.2264 36.0967 66.2266 36.1629C66.2268 36.2276 66.2735 36.2542 66.3298 36.2217L68.8327 34.7766C68.8891 34.7441 68.9354 34.6638 68.9352 34.5991C68.9351 34.533 68.8884 34.5077 68.8321 34.5403L66.3291 35.9853Z" fill="#384E85"/>
<path d="M66.3307 36.5368C66.2744 36.5694 66.228 36.6483 66.2282 36.7144C66.2284 36.7791 66.275 36.8057 66.3314 36.7732L68.8343 35.3282C68.8906 35.2956 68.937 35.2153 68.9368 35.1506C68.9366 35.0845 68.89 35.0593 68.8336 35.0918L66.3307 36.5368Z" fill="#384E85"/>
<path d="M58.3136 70.5277C58.3017 71.1328 57.8864 71.8684 57.3643 72.165C57.2101 72.2599 57.044 72.3074 56.9017 72.3074C56.7949 72.3074 56.6881 72.2836 56.605 72.2243C56.3915 72.1057 56.2609 71.8565 56.2609 71.5361C56.2609 70.9311 56.6762 70.2073 57.2101 69.8989C57.483 69.7328 57.7677 69.7209 57.9813 69.8395C58.1949 69.9701 58.3136 70.2073 58.3136 70.5277Z" fill="#8CA1FD"/>
<path d="M59.647 72.1929L57.2299 70.7981L57.0329 71.1406L59.4482 72.5354C59.6683 72.6632 59.8049 72.8992 59.8049 73.1512V79.7812C59.8049 80.3562 59.4961 80.8921 58.9975 81.1814L48.0533 87.5417C47.5564 87.8327 46.9353 87.8327 46.4313 87.5434L15.4464 69.6552C15.2245 69.5274 15.0914 69.2985 15.0914 69.0412C15.0897 68.7839 15.221 68.5531 15.4446 68.4254L21.5138 64.8974C22.1332 64.539 22.5165 63.8699 22.5165 63.1547V52.4449C22.5165 52.0722 22.3159 51.7226 21.993 51.5345L20.6975 50.7873L20.6194 50.7412L20.4189 51.0837L21.796 51.877C21.9965 51.9941 22.1225 52.2106 22.1225 52.4449V63.1547C22.1225 63.7315 21.8137 64.2674 21.315 64.5549L15.2458 68.0829C14.9015 68.2834 14.6957 68.6419 14.6957 69.0412C14.6957 69.4387 14.9015 69.7972 15.2476 69.9977L46.2326 87.8859C46.5378 88.0616 46.8874 88.1539 47.2406 88.1539C47.5937 88.1539 47.9433 88.0599 48.2521 87.8824L59.1963 81.5221C59.8156 81.1619 60.1989 80.4946 60.1989 79.7812V73.1512C60.1989 72.759 59.9877 72.3917 59.647 72.1929Z" fill="#8CA1FD"/>
<path d="M21.5598 50.5099C21.5479 51.115 21.1326 51.8506 20.6106 52.1472C20.4563 52.2421 20.2903 52.2895 20.1479 52.2895C20.0411 52.2895 19.9343 52.2658 19.8513 52.2065C19.6377 52.0879 19.5071 51.8387 19.5071 51.5183C19.5071 50.9133 19.9224 50.1895 20.4563 49.8811C20.7292 49.715 21.014 49.7031 21.2275 49.8217C21.4411 49.9523 21.5598 50.1895 21.5598 50.5099Z" fill="#8CA1FD"/>
<path d="M38.4369 48.9119L37.5744 48.4108L37.5942 87.5713L38.4566 88.0724L38.4369 48.9119Z" fill="#2E4277"/>
<path d="M54.0651 39.8889L53.2027 39.3877L37.5744 48.4107L38.4369 48.9119L54.0651 39.8889Z" fill="#384E85"/>
<path d="M38.4369 48.9119L38.4593 88.0704L54.0824 79.0518L54.06 39.8934L38.4369 48.9119ZM40.3199 48.9144L52.1826 42.0726L52.1937 77.8673L40.3423 84.7091L40.3199 48.9144Z" fill="#1B2A4F"/>
<path d="M38.8245 67.5988L39.5397 68.01C39.5907 68.0406 39.6349 68.0423 39.6689 68.0236L40.0851 67.7823L40.0834 68.117C40.0817 68.2869 40.0222 68.4075 39.9237 68.4653L40.5235 68.117C40.6203 68.0593 40.6815 67.9403 40.6815 67.7687L40.6866 64.9369C40.6883 64.592 40.4453 64.1723 40.1463 64.0007L39.431 63.5879L38.8329 63.9345L39.5465 64.3473C39.8473 64.5206 40.0885 64.9403 40.0885 65.2852L40.0851 67.6328L39.4242 67.2505L38.8245 67.5988Z" fill="#B7C5FD"/>
<path d="M38.8328 63.9353L38.8316 64.3504L39.5464 64.7631C39.6462 64.8207 39.7262 64.9605 39.7259 65.0752L39.7208 67.9078C39.7204 68.0225 39.6399 68.0684 39.5401 68.0108L38.8253 67.5981L38.8241 68.0144L39.5389 68.4271C39.8383 68.5999 40.0821 68.4598 40.0831 68.117L40.0882 65.2844C40.0892 64.9404 39.847 64.5209 39.5476 64.348L38.8328 63.9353Z" fill="#798FFE"/>
<path opacity="0.3" d="M52.1776 42.0701L52.1952 77.8683L40.3442 84.711L40.3257 48.9118L52.1776 42.0701Z" fill="#4466FB"/>
<g opacity="0.2">
<path opacity="0.2" d="M52.1784 43.201L40.329 54.8764L40.3309 58.4813L52.179 44.3407L52.1784 43.201Z" fill="white"/>
<path opacity="0.2" d="M52.1808 48.373L40.3328 62.5137L40.3347 66.1182L52.1856 54.6445L52.1808 48.373Z" fill="white"/>
<path opacity="0.2" d="M52.1873 61.1243L40.3375 71.0083L40.3394 74.6746L52.1884 63.3382L52.1873 61.1243Z" fill="white"/>
<path opacity="0.2" d="M40.3414 78.7076L40.3432 82.1557L52.1938 70.8985L52.1904 67.3711L40.3414 78.7076Z" fill="white"/>
</g>
</svg>
